<?xml version="1.0" encoding="UTF-8" standalone="no"?>
<!-- Created with Inkscape (http://www.inkscape.org/) -->

<svg
   xmlns:dc="http://purl.org/dc/elements/1.1/"
   xmlns:cc="http://creativecommons.org/ns#"
   xmlns:rdf="http://www.w3.org/1999/02/22-rdf-syntax-ns#"
   xmlns:svg="http://www.w3.org/2000/svg"
   xmlns="http://www.w3.org/2000/svg"
   xmlns:sodipodi="http://sodipodi.sourceforge.net/DTD/sodipodi-0.dtd"
   xmlns:inkscape="http://www.inkscape.org/namespaces/inkscape"
   width="250.75642mm"
   height="271.16354mm"
   viewBox="0 0 888.50701 960.8157"
   id="svg2"
   version="1.1"
   inkscape:version="0.91 r13725"
   sodipodi:docname="login-back-2.svg">
  <defs
     id="defs4" />
  <sodipodi:namedview
     id="base"
     pagecolor="#ffffff"
     bordercolor="#666666"
     borderopacity="1.0"
     inkscape:pageopacity="0.0"
     inkscape:pageshadow="2"
     inkscape:zoom="0.7"
     inkscape:cx="247.10454"
     inkscape:cy="510.91259"
     inkscape:document-units="px"
     inkscape:current-layer="layer1"
     showgrid="false"
     fit-margin-top="0"
     fit-margin-left="0"
     fit-margin-right="0"
     fit-margin-bottom="0"
     inkscape:snap-global="false"
     inkscape:window-width="1474"
     inkscape:window-height="841"
     inkscape:window-x="54"
     inkscape:window-y="-8"
     inkscape:window-maximized="1" />
  <metadata
     id="metadata7">
    <rdf:RDF>
      <cc:Work
         rdf:about="">
        <dc:format>image/svg+xml</dc:format>
        <dc:type
           rdf:resource="http://purl.org/dc/dcmitype/StillImage" />
        <dc:title></dc:title>
      </cc:Work>
    </rdf:RDF>
  </metadata>
  <g
     inkscape:label="Layer 1"
     inkscape:groupmode="layer"
     id="layer1"
     transform="translate(21.39636,-54.81147)">
    <circle
       id="circle3341"
       r="16.330999"
       cy="204.16179"
       cx="518.36963"
       style="fill:#91bd09;fill-opacity:0.36094674" />
    <path
       style="fill:#91bd09;fill-opacity:1"
       inkscape:connector-curvature="0"
       d="m 529.70364,215.49579 c -6.25,6.249 -16.418,6.249 -22.668,0 -6.248,-6.249 -6.248,-16.417 10e-4,-22.666 6.249,-6.249 16.417,-6.25 22.666,0 6.25,6.249 6.25,16.417 10e-4,22.666 m 6.167,6.168 c 9.665,-9.665 9.665,-25.336 -10e-4,-35.002 -9.665,-9.665 -25.335,-9.665 -35,0 -9.665,9.665 -9.666,25.336 -10e-4,35 9.666,9.667 25.337,9.667 35.002,0.002 l 0,0 z"
       id="path3343" />
    <path
       style="fill:#81bf89;fill-opacity:1"
       inkscape:connector-curvature="0"
       d="m 126.64864,59.07879 c 3.785,-3.785 9.921,-3.785 13.705,0 l 158.282,158.281 c 5.483,5.483 11.019,8.146 16.924,8.139 10.11,-0.012 18.556,-8.042 18.636,-8.123 l 49.44,-49.44 c 9.145,-9.144 19.428,-13.771 30.566,-13.751 18.161,0.031 31.115,12.548 32.532,13.975 0.771,0.771 7.845,8.058 11.54,19.122 5.194,15.552 1.1,31.071 -11.528,43.699 -7.343,7.344 -9.64,15.05 -7.019,23.56 2.126,6.904 6.718,11.911 7.091,12.311 l 50.573,50.573 c 7.301,7.301 14.936,9.587 23.339,6.99 6.871,-2.124 11.833,-6.732 12.166,-7.047 l 24.626,-24.627 c 7.389,-7.388 9.705,-15.089 7.079,-23.544 -2.159,-6.952 -6.864,-11.948 -7.118,-12.215 l -45.965,-45.964 c -3.784,-3.785 -3.784,-9.921 0,-13.706 3.785,-3.785 9.921,-3.785 13.705,0 l 46.005,46.004 c 0.805,0.807 7.898,8.131 11.599,19.248 5.198,15.62 1.079,31.204 -11.599,43.881 l -24.716,24.716 c -0.797,0.79 -8.107,7.821 -19.177,11.488 -15.563,5.155 -31.065,1.064 -43.649,-11.521 l -50.7,-50.7 c -0.791,-0.804 -7.832,-8.172 -11.503,-19.307 -5.164,-15.658 -1.059,-31.23 11.558,-43.846 7.33,-7.33 9.625,-14.966 7.015,-23.343 -2.11,-6.771 -6.655,-11.672 -7.063,-12.103 -0.438,-0.417 -5.37,-5.023 -12.182,-7.178 -8.423,-2.664 -16.1,-0.377 -23.467,6.991 l -49.425,49.424 c -1.399,1.409 -14.253,13.794 -32.335,13.815 -11.159,0.013 -21.471,-4.635 -30.651,-13.815 l -158.284,-158.282 c -3.784,-3.785 -3.784,-9.92 0,-13.705 z"
       id="path3345" />
    <path
       style="fill:#81bf89;fill-opacity:1"
       inkscape:connector-curvature="0"
       d="m 3.64464,195.78879 13.705,-13.705 194.519,194.518 c 2.662,2.661 5.337,5.377 7.925,8.003 5.137,5.211 10.448,10.601 15.766,15.688 7.661,7.326 11.179,17.981 9.182,27.806 -1.933,9.508 -8.251,15.824 -13.319,20.882 l -16.993,16.992 -24.733,24.733 c -0.343,0.342 -0.684,0.678 -1.021,1.009 -2.473,2.429 -2.684,2.801 -2.691,3.321 -0.053,4.192 5.639,9.527 10.213,13.814 1.256,1.178 2.556,2.396 3.762,3.603 l 75.648,75.648 -13.706,13.705 -75.648,-75.648 c -0.984,-0.984 -2.115,-2.044 -3.312,-3.167 -6.962,-6.526 -16.498,-15.464 -16.338,-28.199 0.109,-8.678 5.156,-13.623 8.493,-16.909 0.296,-0.289 0.594,-0.583 0.894,-0.882 l 41.734,-41.733 c 3.898,-3.891 7.254,-7.247 8.023,-11.03 0.652,-3.208 -0.821,-7.295 -3.584,-9.938 -5.525,-5.285 -10.938,-10.778 -16.174,-16.09 -2.563,-2.602 -5.214,-5.291 -7.825,-7.902 l -194.52,-194.519 z"
       id="path3347" />
    <path
       style="fill:#81bf89;fill-opacity:1"
       inkscape:connector-curvature="0"
       d="m 290.05964,616.57979 c -5.425,5.425 -14.22,5.425 -19.645,0 -5.424,-5.425 -5.424,-14.22 0,-19.644 5.425,-5.425 14.219,-5.426 19.644,-10e-4 5.425,5.425 5.425,14.221 10e-4,19.645 m 13.705,13.705 c 12.973,-12.973 12.973,-34.081 0,-47.055 -12.973,-12.973 -34.081,-12.973 -47.055,10e-4 -12.973,12.973 -12.973,34.081 0,47.054 12.973,12.973 34.082,12.973 47.055,0 l 0,0 z"
       id="path3349" />
    <circle
       id="circle3353"
       r="13.891"
       cy="606.75677"
       cx="280.23663"
       style="fill:#ebffd9;stroke:#000000;stroke-opacity:1;fill-opacity:1" />
    <path
       id="path3355"
       d="m 283.20664,609.72679 c -1.638,1.638 -4.302,1.638 -5.94,0 -1.637,-1.637 -1.637,-4.302 0,-5.939 1.638,-1.637 4.302,-1.637 5.939,0 1.639,1.637 1.639,4.302 10e-4,5.939 m 6.853,6.853 c 5.424,-5.424 5.424,-14.22 0,-19.645 -5.424,-5.425 -14.219,-5.424 -19.644,10e-4 -5.425,5.424 -5.425,14.219 0,19.644 5.424,5.424 14.219,5.424 19.644,0 l 0,0 z"
       inkscape:connector-curvature="0"
       style="fill:#91bd09;stroke:#000000;stroke-opacity:1;fill-opacity:1" />
    <path
       style="fill:#81bf89;fill-opacity:1"
       inkscape:connector-curvature="0"
       d="m 27.59964,171.83279 13.706,-13.705 257.901,257.901 c 1.849,1.797 14.463,14.706 14.651,32.667 0.115,11.002 -4.399,21.153 -13.417,30.171 l -98.767,98.767 c -0.324,0.332 -5.107,5.314 -7.354,12.239 -2.739,8.442 -0.465,16.151 6.952,23.568 l 73.666,73.666 -13.706,13.705 -73.666,-73.665 c -9.195,-9.195 -13.825,-19.523 -13.761,-30.697 0.103,-18.074 12.577,-30.979 14.25,-32.608 l 98.681,-98.68 c 5.269,-5.269 7.801,-10.588 7.741,-16.263 -0.106,-10.201 -8.687,-18.883 -8.773,-18.966 l -0.145,-0.142 -257.959,-257.958 z"
       id="path3357" />
    <path
       style="fill:#81bf89;fill-opacity:1"
       inkscape:connector-curvature="0"
       d="m 283.27464,709.14979 c -2.964,2.965 -7.771,2.965 -10.736,-0.001 -2.964,-2.964 -2.964,-7.771 0,-10.734 2.964,-2.965 7.771,-2.966 10.735,-0.001 2.965,2.964 2.965,7.771 10e-4,10.736 m 13.705,13.705 c 10.517,-10.518 10.517,-27.629 0,-38.146 -10.517,-10.517 -27.628,-10.517 -38.146,0 -10.517,10.518 -10.517,27.629 0,38.146 10.516,10.517 27.629,10.518 38.146,0 l 0,0 z"
       id="path3359" />
    <circle
       id="circle3363"
       r="18.575001"
       cy="703.7818"
       cx="277.90564"
       style="fill:#91bd09;fill-opacity:1" />
    <path
       style="fill:#81bf89;fill-opacity:1"
       inkscape:connector-curvature="0"
       d="m 52.61264,146.82079 13.705,-13.705 479.601,479.601 c 0.824,0.828 8.029,8.277 11.9,19.493 5.477,15.869 1.508,31.592 -11.176,44.275 -12.651,12.651 -28.192,16.761 -43.76,11.571 -11.08,-3.693 -18.376,-10.775 -19.171,-11.571 l -0.005,-0.004 c -0.049,-0.049 -5.034,-4.92 -12.062,-7.123 -8.362,-2.622 -16.033,-0.291 -23.451,7.127 -7.585,7.585 -9.894,15.463 -7.056,24.081 2.22,6.743 6.782,11.509 6.827,11.554 l 73.976,73.976 c 0.255,0.243 5.27,4.984 12.246,7.17 8.46,2.65 16.158,0.353 23.534,-7.023 l 49.453,-49.453 c 1.369,-1.393 14.178,-13.786 32.202,-13.828 11.112,-0.025 21.384,4.598 30.528,13.742 l 123.548,123.546 -13.705,13.705 -123.547,-123.547 c -5.441,-5.44 -10.93,-8.079 -16.778,-8.065 -10.029,0.023 -18.413,8.023 -18.51,8.119 l 0,0 -49.485,49.485 c -12.679,12.68 -28.273,16.774 -43.912,11.529 -11.118,-3.729 -18.447,-10.845 -19.246,-11.644 l -74.008,-74.008 c -0.795,-0.796 -7.876,-8.091 -11.532,-19.198 -5.125,-15.566 -0.948,-31.139 11.761,-43.847 9.231,-9.231 19.582,-13.892 30.764,-13.853 17.76,0.062 30.408,12.092 32.138,13.825 0.31,0.295 5.258,4.943 12.134,7.081 8.397,2.61 16.057,0.304 23.414,-7.054 7.332,-7.332 9.531,-15.101 6.725,-23.75 -2.321,-7.157 -7.202,-12.348 -7.49,-12.648 l -479.562,-479.559 z"
       id="path3365" />
    <path
       style="fill:#81bf89;fill-opacity:1"
       inkscape:connector-curvature="0"
       d="m 519.16964,649.01079 c -2.333,2.333 -6.117,2.334 -8.451,0 -2.335,-2.334 -2.334,-6.118 0,-8.452 2.334,-2.334 6.118,-2.334 8.451,0 2.335,2.334 2.335,6.117 0,8.452 m 6.853,6.853 c 6.108,-6.109 6.108,-16.049 0,-22.157 -6.109,-6.109 -16.049,-6.109 -22.157,0 -6.109,6.108 -6.109,16.048 0,22.157 6.108,6.108 16.048,6.108 22.157,0 l 0,0 z"
       id="path3367" />
    <path
       style="fill:#e6e7e8"
       inkscape:connector-curvature="0"
       d="m 412.84264,642.72879 c 9.792,-9.792 22.089,-16.525 35.562,-19.473 13.105,-2.867 26.714,-2.047 39.355,2.371 5.053,1.766 7.717,7.293 5.95,12.346 -1.765,5.053 -7.293,7.717 -12.346,5.951 -19.044,-6.656 -40.561,-1.746 -54.817,12.51 -20.593,20.594 -20.595,54.101 -0.002,74.693 2.557,2.558 5.369,4.852 8.358,6.818 4.471,2.942 5.71,8.952 2.767,13.423 -2.942,4.469 -8.952,5.71 -13.423,2.767 -4.085,-2.688 -7.923,-5.818 -11.408,-9.303 -28.148,-28.149 -28.147,-73.953 0.004,-102.103 z"
       id="path3369" />
    <path
       style="fill:#81bf89;fill-opacity:1"
       inkscape:connector-curvature="0"
       d="m 809.09864,889.60179 c -5.425,5.425 -14.22,5.425 -19.645,0 -5.425,-5.424 -5.425,-14.22 0,-19.645 5.424,-5.424 14.22,-5.425 19.645,0 5.425,5.425 5.425,14.221 0,19.645 m 6.852,6.853 c 9.195,-9.194 9.195,-24.155 0,-33.35 -9.193,-9.194 -24.154,-9.194 -33.349,0 -9.195,9.194 -9.194,24.155 0,33.35 9.194,9.195 24.156,9.194 33.349,0 l 0,0 z"
       id="path3371" />
    <path
       style="fill:#81bf89;fill-opacity:1"
       inkscape:connector-curvature="0"
       d="m 77.28164,122.15079 13.705,-13.705 357.031,357.032 c 0.253,0.241 5.234,4.949 12.175,7.107 8.427,2.62 16.111,0.306 23.492,-7.075 12.669,-12.669 28.218,-16.803 43.781,-11.639 11.088,3.679 18.382,10.758 19.177,11.554 l 73.83,73.83 c 0.801,0.8 7.928,8.141 11.673,19.269 5.27,15.661 1.188,31.271 -11.494,43.953 -7.381,7.381 -9.695,15.065 -7.075,23.491 2.158,6.94 6.865,11.923 7.107,12.175 l 148.093,148.093 c 0.207,0.2 5.106,4.887 11.979,7.004 8.337,2.568 16.001,0.204 23.432,-7.227 l 24.796,-24.796 c 0.217,-0.223 4.94,-5.142 7.104,-12.02 2.618,-8.321 0.309,-15.948 -7.06,-23.316 l -49.225,-49.225 13.705,-13.705 49.226,49.225 c 9.188,9.188 13.826,19.495 13.787,30.636 -0.062,17.883 -12.318,30.575 -13.86,32.139 l -24.768,24.768 c -9.259,9.258 -19.63,13.938 -30.825,13.913 -17.958,-0.042 -30.637,-12.317 -32.022,-13.717 l -148.099,-148.099 c -0.797,-0.797 -7.893,-8.105 -11.593,-19.206 -5.198,-15.596 -1.082,-31.164 11.593,-43.838 7.516,-7.516 9.749,-15.389 6.829,-24.065 -2.3,-6.835 -6.962,-11.7 -7.008,-11.746 l -73.797,-73.797 c -0.251,-0.241 -5.209,-4.924 -12.121,-7.061 -8.402,-2.599 -16.076,-0.271 -23.46,7.112 -12.674,12.675 -28.242,16.791 -43.838,11.593 -11.101,-3.7 -18.409,-10.795 -19.207,-11.593 l -357.063,-357.064 z"
       id="path3373" />
    <path
       style="fill:#81bf89;fill-opacity:1"
       inkscape:connector-curvature="0"
       d="m 780.20364,663.35179 c -2.965,2.964 -7.771,2.964 -10.736,0 -2.965,-2.965 -2.964,-7.771 0,-10.736 2.965,-2.965 7.771,-2.965 10.736,0 2.965,2.965 2.965,7.771 0,10.736 m 13.705,13.705 c 10.517,-10.518 10.517,-27.63 0,-38.146 -10.517,-10.518 -27.63,-10.518 -38.146,0 -10.518,10.517 -10.518,27.629 0,38.146 10.516,10.517 27.629,10.517 38.146,0 l 0,0 z"
       id="path3375" />
    <g
       id="g3377"
       transform="translate(118.95164,124.18479)">
      <circle
         style="fill:#8dc63f"
         cx="655.88397"
         cy="533.79901"
         r="7.592"
         id="circle3379" />
    </g>
    <g
       id="g3381"
       transform="translate(118.95164,124.18479)">
      <path
         style="fill:#2bb673"
         inkscape:connector-curvature="0"
         d="m 651.145,726.415 c 16.09,-16.09 42.271,-16.09 58.36,0 16.089,16.09 16.09,42.271 0,58.359 -16.09,16.091 -42.271,16.09 -58.36,0 -1.892,-1.892 -1.892,-4.96 0,-6.853 1.893,-1.892 4.961,-1.892 6.854,0 12.311,12.312 32.343,12.312 44.654,10e-4 12.311,-12.312 12.311,-32.344 0,-44.655 -12.312,-12.312 -32.344,-12.312 -44.655,0 -1.892,1.893 -4.96,1.893 -6.853,0 -1.892,-1.892 -1.892,-4.96 0,-6.852 z"
         id="path3383" />
      <g
         id="g3385">
        <polygon
           style="fill:#2bb673"
           points="644.205,771.062 649.456,790.663 663.806,776.313 "
           id="polygon3387" />
      </g>
    </g>
    <path
       style="fill:#e6e7e8"
       inkscape:connector-curvature="0"
       d="m 800.24664,683.39479 c -14.033,14.033 -36.788,14.034 -50.822,0 -14.034,-14.035 -14.033,-36.789 0,-50.822 14.033,-14.034 36.788,-14.035 50.822,0 14.034,14.034 14.033,36.788 0,50.822 m 6.167,6.167 c 17.413,-17.412 17.413,-45.744 0,-63.156 -17.412,-17.413 -45.744,-17.413 -63.156,0 -17.413,17.412 -17.413,45.744 0,63.156 17.412,17.413 45.744,17.413 63.156,0 l 0,0 z"
       id="path3389" />
    <path
       style="fill:#81bf89;fill-opacity:1"
       inkscape:connector-curvature="0"
       d="m -21.39636,220.82979 13.705,-13.706 381.763,381.762 c 0.794,0.795 7.869,8.083 11.541,19.166 5.152,15.554 1.013,31.096 -11.655,43.764 l -24.593,24.593 c -0.399,0.429 -4.94,5.41 -7.042,12.27 -2.6,8.486 -0.302,16.173 7.022,23.498 l 221.822,221.821 c 0.254,0.243 5.269,4.984 12.245,7.17 8.46,2.65 16.158,0.353 23.534,-7.023 l 24.67,-24.67 c 1.377,-1.368 14.178,-13.786 32.235,-13.828 11.165,-0.025 21.492,4.627 30.694,13.828 l -13.706,13.705 c -7.397,-7.397 -15.064,-9.721 -23.438,-7.103 -7.041,2.201 -12.041,7.064 -12.091,7.114 l -24.658,24.658 c -12.68,12.68 -28.274,16.774 -43.912,11.529 -11.118,-3.729 -18.448,-10.845 -19.247,-11.644 l -221.853,-221.853 c -12.591,-12.591 -16.7,-28.131 -11.57,-43.76 3.648,-11.116 10.662,-18.476 11.45,-19.277 l 0.449,-0.449 24.284,-24.284 c 7.385,-7.385 9.716,-15.056 7.126,-23.449 -2.13,-6.903 -6.805,-11.853 -7.045,-12.104 l -381.73,-381.728 z"
       id="path3391" />
    <path
       style="fill:#81bf89;fill-opacity:1"
       inkscape:connector-curvature="0"
       d="m 709.50664,938.02679 c -5.677,5.676 -14.88,5.676 -20.557,0 -5.676,-5.677 -5.676,-14.88 0,-20.557 5.677,-5.677 14.88,-5.677 20.557,0 5.677,5.677 5.676,14.88 0,20.557 m 6.852,6.852 c 9.446,-9.446 9.446,-24.816 0,-34.262 -9.446,-9.446 -24.815,-9.446 -34.262,0 -9.446,9.445 -9.446,24.815 0,34.262 9.446,9.447 24.816,9.447 34.262,0 l 0,0 z"
       id="path3393" />
    <path
       style="fill:#81bf89;fill-opacity:1"
       inkscape:connector-curvature="0"
       d="m 522.10064,884.93279 c 0.05,0.049 5.046,4.861 12.078,7.022 8.377,2.576 16.04,0.237 23.428,-7.15 l 49.34,-49.339 c 1.374,-1.374 14.18,-13.786 32.235,-13.828 11.165,-0.025 21.492,4.626 30.693,13.828 l -13.705,13.705 c -7.397,-7.397 -15.064,-9.721 -23.438,-7.103 -7.041,2.201 -12.042,7.064 -12.092,7.113 l 0.043,-0.043 -49.371,49.371 c -12.665,12.665 -28.193,16.815 -43.726,11.687 -11.074,-3.657 -18.354,-10.722 -19.146,-11.515 l 13.705,-13.705 -0.044,-0.043 z"
       id="path3395" />
    <path
       style="fill:#81bf89;fill-opacity:1"
       inkscape:connector-curvature="0"
       d="m 673.01664,852.31279 c -2.334,2.334 -6.118,2.334 -8.452,0 -2.334,-2.334 -2.334,-6.119 0,-8.452 2.334,-2.334 6.118,-2.334 8.452,0 2.334,2.334 2.334,6.118 0,8.452 m 6.853,6.852 c 6.108,-6.109 6.108,-16.049 0,-22.157 -6.109,-6.109 -16.049,-6.109 -22.157,0 -6.108,6.108 -6.108,16.048 0,22.157 6.108,6.109 16.048,6.109 22.157,0 l 0,0 z"
       id="path3397" />
    <path
       style="fill:#ebffb4;fill-opacity:1"
       inkscape:connector-curvature="0"
       d="m 682.55364,861.84879 c -7.601,7.602 -19.925,7.602 -27.525,10e-4 -7.601,-7.602 -7.601,-19.925 0,-27.526 7.602,-7.601 19.926,-7.602 27.526,0 7.6,7.6 7.6,19.924 -10e-4,27.525 m 3.426,3.427 c 9.479,-9.479 9.479,-24.9 10e-4,-34.379 -9.479,-9.478 -24.901,-9.478 -34.379,0 -9.479,9.479 -9.479,24.9 -10e-4,34.379 9.479,9.478 24.902,9.478 34.379,0 l 0,0 z"
       id="path3399" />
    <path
       style="fill:#81bf89;stroke:none;fill-opacity:1"
       inkscape:connector-curvature="0"
       d="m 101.95164,97.48179 13.705,-13.705 184.343,184.343 c 0.225,0.216 5.191,4.919 12.124,7.063 8.402,2.598 16.075,0.271 23.459,-7.113 12.678,-12.678 28.267,-16.778 43.893,-11.545 11.114,3.722 18.438,10.833 19.237,11.631 l 49.167,49.167 c 0.799,0.798 7.903,8.116 11.608,19.233 5.206,15.616 1.083,31.205 -11.608,43.896 -5.49,5.49 -8.154,11.029 -8.144,16.934 0.017,9.873 7.698,18.146 8.105,18.573 0.403,0.381 5.356,4.959 12.2,7.078 8.444,2.615 16.123,0.312 23.473,-7.037 l 49.41,-49.41 c 0.806,-0.788 8.187,-7.809 19.323,-11.47 15.666,-5.149 31.229,-1.051 43.821,11.541 l 123.347,123.347 c 0.818,0.823 7.886,8.154 11.558,19.275 5.157,15.615 1.022,31.189 -11.644,43.854 l -13.705,-13.705 c 7.39,-7.39 9.715,-15.096 7.108,-23.558 -2.137,-6.94 -6.807,-11.933 -7.076,-12.216 l -123.293,-123.291 c -7.467,-7.466 -15.338,-9.701 -24.063,-6.833 -6.693,2.2 -11.522,6.632 -11.801,6.893 l -49.28,49.279 c -12.635,12.635 -28.188,16.742 -43.792,11.564 -11.103,-3.684 -18.429,-10.748 -19.228,-11.541 -1.414,-1.404 -13.814,-14.238 -13.845,-32.309 -0.02,-11.163 4.631,-21.482 13.821,-30.673 7.543,-7.544 9.809,-15.414 6.926,-24.062 -2.264,-6.792 -6.88,-11.611 -6.926,-11.657 l -49.136,-49.136 c -0.267,-0.256 -5.269,-4.978 -12.227,-7.153 -8.452,-2.643 -16.146,-0.341 -23.524,7.037 -12.669,12.669 -28.218,16.803 -43.782,11.639 -11.087,-3.678 -18.381,-10.758 -19.176,-11.554 l -184.378,-184.379 z"
       id="path3401" />
    <path
       style="fill:#81bf89;fill-opacity:1"
       inkscape:connector-curvature="0"
       d="m 708.13664,561.36179 c -2.964,2.965 -7.771,2.965 -10.735,0 -2.964,-2.965 -2.965,-7.771 0,-10.736 2.965,-2.964 7.771,-2.965 10.735,0 2.965,2.964 2.964,7.771 0,10.736 m 13.705,13.705 c 10.518,-10.518 10.518,-27.63 0,-38.146 -10.517,-10.518 -27.629,-10.518 -38.146,0 -10.518,10.517 -10.518,27.629 0,38.146 10.517,10.516 27.629,10.516 38.146,0 l 0,0 z"
       id="path3403" />
    <path
       style="fill:#e6e7e8"
       inkscape:connector-curvature="0"
       d="m 540.86964,226.66279 c -12.406,12.406 -32.594,12.406 -45,-0.001 -12.406,-12.405 -12.405,-32.591 10e-4,-44.998 12.406,-12.407 32.593,-12.407 44.998,-0.001 12.407,12.406 12.407,32.593 10e-4,45 m 6.167,6.167 c 15.832,-15.832 15.832,-41.501 -0.001,-57.334 -15.832,-15.833 -41.5,-15.831 -57.332,0.001 -15.832,15.832 -15.834,41.5 -0.002,57.333 15.834,15.832 41.504,15.832 57.335,0 l 0,0 z"
       id="path3405" />
    <path
       style="fill:#e6e7e8"
       inkscape:connector-curvature="0"
       d="m 708.87264,444.00279 c 1.893,-1.892 4.96,-1.892 6.853,0 l 49.517,49.517 c 1.892,1.893 1.892,4.961 0,6.854 -1.893,1.892 -4.96,1.892 -6.853,0 l -49.517,-49.517 c -1.893,-1.893 -1.893,-4.96 0,-6.854 z"
       id="path3407" />
    <path
       style="fill:#e6e7e8"
       inkscape:connector-curvature="0"
       d="m 777.39764,512.52979 c 1.893,-1.892 4.961,-1.892 6.854,0 l 20.735,20.736 c 1.893,1.892 1.893,4.96 0,6.853 -1.893,1.892 -4.96,1.892 -6.853,0 l -20.736,-20.735 c -1.891,-1.893 -1.891,-4.962 0,-6.854 z"
       id="path3409" />
    <path
       style="fill:#e6e7e8"
       inkscape:connector-curvature="0"
       d="m 818.51364,553.64579 c 1.893,-1.893 4.96,-1.893 6.853,0 l 10.368,10.367 c 1.892,1.893 1.892,4.961 0,6.854 -1.893,1.892 -4.961,1.892 -6.853,0 l -10.368,-10.368 c -1.892,-1.893 -1.892,-4.961 0,-6.853 z"
       id="path3411" />
    <g
       id="g3413"
       transform="translate(118.95164,124.18479)">
      <path
         style="fill:#e6e7e8"
         inkscape:connector-curvature="0"
         d="m 730.399,460.298 c 1.893,-1.893 4.96,-1.893 6.853,0 l 4.461,4.461 c 1.893,1.892 1.893,4.96 0,6.852 -1.893,1.893 -4.961,1.893 -6.854,0 l -4.46,-4.46 c -1.892,-1.893 -1.892,-4.962 0,-6.853 z"
         id="path3415" />
      <g
         id="g3417">
        <polygon
           style="fill:#e6e7e8"
           points="748.159,477.982 743.158,459.313 729.491,472.98 "
           id="polygon3419" />
      </g>
    </g>
    <g
       id="g3421"
       transform="translate(118.95164,124.18479)">
      <path
         style="fill:#e6e7e8"
         inkscape:connector-curvature="0"
         d="m 463.268,45.093 c 12.668,-12.668 28.249,-16.759 43.873,-11.519 11.107,3.726 18.43,10.834 19.229,11.633 l -13.705,13.706 0.042,0.042 c -0.051,-0.049 -5.122,-4.94 -12.237,-7.168 -8.446,-2.646 -16.132,-0.352 -23.496,7.013 -7.516,7.516 -9.771,15.376 -6.896,24.029 2.26,6.799 6.867,11.631 6.912,11.677 l 24.654,24.654 c 12.668,12.668 16.798,28.241 11.627,43.849 -3.683,11.114 -10.76,18.438 -11.554,19.236 l -24.686,24.685 c -3.784,3.785 -9.921,3.785 -13.705,0 -3.785,-3.785 -3.785,-9.92 0,-13.705 l 24.624,-24.624 c 0.278,-0.293 4.946,-5.275 7.085,-12.2 2.611,-8.451 0.29,-16.149 -7.097,-23.536 L 463.273,108.2 c -0.816,-0.821 -7.897,-8.148 -11.59,-19.26 -5.189,-15.616 -1.075,-31.188 11.585,-43.847 z"
         id="path3423" />
      <g
         id="g3425">
        <polygon
           style="fill:#e6e7e8"
           points="545.186,77.534 532.184,28.995 496.65,64.528 "
           id="polygon3427" />
      </g>
    </g>
    <g
       id="g3429"
       transform="translate(118.95164,124.18479)">
      <path
         style="fill:#e6e7e8"
         inkscape:connector-curvature="0"
         d="m 152.102,572.744 c 3.785,-3.785 9.921,-3.785 13.706,0 3.785,3.784 3.785,9.92 0,13.705 l -73.953,73.952 c -0.322,0.341 -4.962,5.338 -7.102,12.259 -2.622,8.479 -0.317,16.181 7.046,23.545 7.507,7.507 15.376,9.759 24.056,6.883 6.822,-2.26 11.678,-6.868 11.724,-6.914 l 24.648,-24.649 c 0.801,-0.791 8.142,-7.837 19.25,-11.512 15.619,-5.166 31.168,-1.063 43.783,11.552 12.629,12.629 16.701,28.168 11.466,43.753 -3.652,10.873 -10.552,18.11 -11.558,19.126 -0.217,0.227 -4.949,5.243 -7.116,12.232 -2.624,8.46 -0.312,16.159 7.066,23.538 24.368,24.368 73.703,73.561 74.198,74.055 3.79,3.779 3.798,9.916 0.019,13.706 -0.002,0.003 -0.006,0.007 -0.01,0.01 -3.78,3.78 -9.908,3.786 -13.695,0.01 -0.496,-0.494 -49.84,-49.697 -74.218,-74.075 -12.665,-12.665 -16.781,-28.244 -11.59,-43.867 3.661,-11.016 10.649,-18.313 11.55,-19.224 0.129,-0.134 4.939,-5.162 7.145,-12.189 2.637,-8.404 0.359,-16.048 -6.962,-23.369 -7.479,-7.479 -15.326,-9.721 -23.991,-6.854 -6.704,2.218 -11.509,6.702 -11.706,6.889 l -24.607,24.606 c -0.833,0.826 -8.178,7.892 -19.302,11.576 -15.636,5.18 -31.211,1.069 -43.856,-11.576 -12.645,-12.645 -16.756,-28.22 -11.576,-43.856 3.685,-11.123 10.75,-18.469 11.544,-19.27 l 74.041,-74.042 z"
         id="path3431" />
      <g
         id="g3433">
        <polygon
           style="fill:#e6e7e8"
           points="305.213,873.634 293.648,830.712 262.261,862.19 "
           id="polygon3435" />
      </g>
    </g>
    <g
       id="g3437"
       transform="translate(118.95164,124.18479)"
       style="fill:#81bf89;fill-opacity:1">
      <path
         style="fill:#81bf89;fill-opacity:1"
         inkscape:connector-curvature="0"
         d="m 264.536,730.291 c 16.216,-16.217 42.602,-16.217 58.818,0 16.217,16.216 16.217,42.602 0,58.817 -16.216,16.217 -42.603,16.217 -58.818,0 -3.785,-3.784 -3.785,-9.92 0,-13.705 3.785,-3.784 9.92,-3.784 13.705,0 8.659,8.659 22.749,8.66 31.408,0 8.659,-8.659 8.659,-22.748 0,-31.407 -8.659,-8.659 -22.749,-8.66 -31.408,0 -3.785,3.784 -9.92,3.784 -13.705,0 -3.785,-3.785 -3.785,-9.921 0,-13.705 z"
         id="path3439" />
      <g
         id="g3441"
         style="fill:#81bf89;fill-opacity:1">
        <polygon
           style="fill:#81bf89;fill-opacity:1"
           points="248.681,759.678 260.183,716.739 291.616,748.173 "
           id="polygon3443" />
      </g>
    </g>
    <g
       id="g3445"
       transform="translate(118.95164,124.18479)">
      <path
         style="fill:#e6e7e8"
         inkscape:connector-curvature="0"
         d="m 563.107,250.62 c 9.985,-9.985 26.232,-9.985 36.218,0 1.893,1.893 1.893,4.961 0,6.853 -1.893,1.893 -4.961,1.893 -6.853,0 -6.207,-6.206 -16.307,-6.206 -22.513,0 -6.206,6.207 -6.207,16.306 0,22.513 6.206,6.207 16.306,6.207 22.513,0 1.892,-1.893 4.96,-1.893 6.853,0 1.893,1.893 1.893,4.96 0,6.853 -9.985,9.985 -26.232,9.985 -36.218,0 -9.986,-9.985 -9.985,-26.234 0,-36.219 z"
         id="path3447" />
      <g
         id="g3449">
        <polygon
           style="fill:#e6e7e8"
           points="607.253,272.145 601.501,293.613 585.785,277.897 "
           id="polygon3451" />
      </g>
    </g>
    <path
       style="fill:#e6e7e8"
       inkscape:connector-curvature="0"
       d="m 468.66264,920.80679 c 2.838,-2.839 7.44,-2.839 10.279,0 l 20.735,20.735 c 2.839,2.838 2.839,7.44 0,10.278 -2.839,2.839 -7.44,2.839 -10.279,0 l -20.735,-20.735 c -2.839,-2.838 -2.839,-7.44 0,-10.278 z"
       id="path3453" />
    <path
       style="fill:#e6e7e8"
       inkscape:connector-curvature="0"
       d="m 509.77764,961.92179 c 2.839,-2.839 7.441,-2.839 10.279,0 l 10.367,10.368 c 2.839,2.838 2.839,7.44 0,10.278 -2.838,2.839 -7.44,2.839 -10.278,0 l -10.368,-10.367 c -2.838,-2.838 -2.838,-7.441 0,-10.279 z"
       id="path3455" />
    <g
       id="g3457"
       transform="translate(118.95164,124.18479)">
      <path
         style="fill:#e6e7e8"
         inkscape:connector-curvature="0"
         d="m 418.237,865.147 c 2.838,-2.838 7.44,-2.838 10.278,0 l 7.888,7.888 c 2.838,2.838 2.838,7.44 0,10.278 -2.839,2.839 -7.44,2.839 -10.279,0 l -7.887,-7.887 c -2.839,-2.837 -2.839,-7.44 0,-10.279 z"
         id="path3459" />
      <g
         id="g3461">
        <polygon
           style="fill:#e6e7e8"
           points="446.072,892.871 438.571,864.868 418.071,885.367 "
           id="polygon3463" />
      </g>
    </g>
    <g
       id="g3465"
       transform="translate(118.95164,124.18479)"
       style="fill:#81bf89;fill-opacity:1">
      <path
         style="fill:#81bf89;fill-opacity:1"
         inkscape:connector-curvature="0"
         d="m 531.695,483.618 c 3.784,-3.785 9.92,-3.785 13.705,0 l 24.626,24.626 c 3.785,3.785 3.785,9.921 0,13.706 -3.784,3.784 -9.92,3.784 -13.705,0 l -24.626,-24.627 c -3.785,-3.785 -3.785,-9.921 0,-13.705 z"
         id="path3467" />
      <path
         style="fill:#81bf89;fill-opacity:1"
         inkscape:connector-curvature="0"
         d="m 531.695,508.244 24.626,-24.626 c 3.785,-3.785 9.921,-3.785 13.705,0 3.785,3.784 3.785,9.92 0,13.705 L 545.4,521.95 c -3.785,3.784 -9.921,3.784 -13.705,0 -3.785,-3.785 -3.785,-9.921 0,-13.706 z"
         id="path3469" />
    </g>
    <g
       id="g3471"
       transform="translate(118.95164,124.18479)">
      <path
         style="fill:#e6e7e8"
         inkscape:connector-curvature="0"
         d="m 56.872,567.74 c 3.785,-3.784 9.921,-3.784 13.705,0 l 19.83,19.83 c 3.785,3.784 3.785,9.921 0,13.705 -3.785,3.785 -9.92,3.785 -13.705,0 l -19.83,-19.83 c -3.785,-3.784 -3.785,-9.92 0,-13.705 z"
         id="path3473" />
      <path
         style="fill:#e6e7e8"
         inkscape:connector-curvature="0"
         d="m 56.872,587.57 19.83,-19.83 c 3.785,-3.784 9.92,-3.784 13.705,0 3.785,3.785 3.785,9.921 0,13.705 l -19.83,19.83 c -3.784,3.785 -9.92,3.785 -13.705,0 -3.785,-3.784 -3.785,-9.921 0,-13.705 z"
         id="path3475" />
    </g>
  </g>
</svg>
