<?xml version="1.0" encoding="UTF-8" standalone="no"?>
<!-- Created with Inkscape (http://www.inkscape.org/) -->

<svg
   xmlns:dc="http://purl.org/dc/elements/1.1/"
   xmlns:cc="http://creativecommons.org/ns#"
   xmlns:rdf="http://www.w3.org/1999/02/22-rdf-syntax-ns#"
   xmlns:svg="http://www.w3.org/2000/svg"
   xmlns="http://www.w3.org/2000/svg"
   xmlns:sodipodi="http://sodipodi.sourceforge.net/DTD/sodipodi-0.dtd"
   xmlns:inkscape="http://www.inkscape.org/namespaces/inkscape"
   width="83.414597mm"
   height="102.94824mm"
   viewBox="0 0 295.56353 364.77723"
   id="svg2"
   version="1.1"
   inkscape:version="0.91 r13725"
   sodipodi:docname="logo.svg">
  <defs
     id="defs4" />
  <sodipodi:namedview
     id="base"
     pagecolor="#ffffff"
     bordercolor="#666666"
     borderopacity="1.0"
     inkscape:pageopacity="0.0"
     inkscape:pageshadow="2"
     inkscape:zoom="0.35"
     inkscape:cx="154.21034"
     inkscape:cy="130.96003"
     inkscape:document-units="px"
     inkscape:current-layer="layer1"
     showgrid="false"
     fit-margin-top="0"
     fit-margin-left="0"
     fit-margin-right="0"
     fit-margin-bottom="0"
     inkscape:window-width="1474"
     inkscape:window-height="841"
     inkscape:window-x="-8"
     inkscape:window-y="-8"
     inkscape:window-maximized="1" />
  <metadata
     id="metadata7">
    <rdf:RDF>
      <cc:Work
         rdf:about="">
        <dc:format>image/svg+xml</dc:format>
        <dc:type
           rdf:resource="http://purl.org/dc/dcmitype/StillImage" />
        <dc:title></dc:title>
      </cc:Work>
    </rdf:RDF>
  </metadata>
  <g
     inkscape:label="Layer 1"
     inkscape:groupmode="layer"
     id="layer1"
     transform="translate(-220.78967,-298.54502)">
    <path
       d="m 369.18759,299.28742 c -0.7424,0.4949 0.3302,0.6599 0.3302,1.0723 -0.1653,1.2373 0.9071,2.2269 0.4946,3.4642 1.8145,3.7942 2.6394,8.0836 3.9592,12.208 0.5774,0.8246 0.4946,1.8144 1.1548,2.7218 0.2475,2.8871 1.7323,5.6914 2.3919,8.4135 l 0.8249,0.4125 c 5.8564,-0.3297 11.7127,0 17.4869,-0.2475 l 0.33,0.2475 c 4.2066,-0.9074 9.2383,0.0825 13.1975,-0.4125 0.4124,0.165 0.165,0.6599 0.2475,0.9899 -8.5785,6.1863 -16.5796,12.043 -24.7456,18.2293 -1.567,0.9896 -0.5772,2.5569 -0.33,3.8767 0.6599,1.4023 1.0724,2.8871 1.4023,4.4541 1.5673,4.2068 2.4746,8.6609 4.2894,12.7028 -0.2478,1.4846 0.9896,2.4747 0.8249,3.7942 0.9071,0.495 0.0822,1.2373 0.7424,1.8148 0.0822,1.1548 1.567,2.6396 0.3299,3.547 -8.0013,-4.8668 -15.6722,-11.2182 -23.5083,-16.3321 l -1.0723,-0.2475 c -8.7435,6.0213 -16.827,12.6201 -25.3228,18.724 -0.3299,0.0827 -0.5774,-0.0825 -0.8248,-0.3297 0.8248,-3.382 2.0622,-6.8465 3.217,-10.2283 -0.9076,-0.7424 0.6596,-0.4127 0.4947,-1.1548 2.0622,-5.9391 3.9594,-12.1255 5.6916,-18.3115 -0.0827,-0.9077 -0.9076,-1.6501 -1.65,-2.0625 -2.8868,-2.3919 -6.4335,-4.3716 -9.3206,-7.0112 l -0.9074,-0.1647 -13.1975,-9.3209 c 0,-0.165 0.165,-0.2477 0.0825,-0.4949 l -0.165,-0.165 c 7.0112,-1.2373 14.1049,-0.7427 21.776,-0.7427 1.0724,-0.4121 2.0622,0.3303 3.1346,-0.2472 2.3918,0 4.3716,0.0825 6.5163,-0.4949 1.402,-1.9797 1.3198,-4.7018 2.6393,-6.7637 2.3097,-6.2689 3.8769,-12.373 6.4341,-18.7243 -0.4125,-0.9896 0.5771,-1.8972 0.9071,-2.8868 -0.0825,-0.4124 0.1652,-0.7424 0.4949,-1.0723 0.6599,0 1.0723,0.4946 1.6498,0.7424 z m -1.0724,13.6099 c -0.4946,0.495 0.33,1.9798 0.7424,2.8868 l 0.0825,0 c 0.7424,1.8973 0.9074,4.7019 1.8147,6.2691 -0.5774,0.7422 0.495,0.8246 0.4125,1.4848 1.567,3.2168 1.4845,6.4338 3.3817,9.5684 l 0.4949,-0.33 c 7.0112,-0.1652 14.1049,-0.0825 20.6212,-0.2477 l 0.33,0.2477 c -5.6092,4.7016 -11.7128,8.9907 -17.8169,13.4448 1.5673,4.9492 3.0521,9.9807 5.1143,15.0125 -0.165,1.6495 0.7424,3.0518 1.0723,4.5366 l -0.4124,0 c -5.1968,-3.9594 -10.9707,-7.6711 -16.1671,-11.8777 -1.8145,1.7319 -3.9592,2.6396 -5.6914,4.3715 -1.897,1.0724 -3.7117,2.8044 -5.279,3.9592 -2.6396,1.4848 -4.6193,3.6295 -7.3412,4.9493 1.0724,-4.2069 2.3919,-8.4135 4.0419,-12.4554 0.4947,-2.8044 1.732,-5.6915 2.6394,-8.496 -5.6914,-4.3716 -11.5478,-8.496 -17.2395,-12.7024 l 0,-0.4124 c 2.3922,0.1647 4.5369,-0.2478 6.5163,-0.0828 l 14.8473,-0.165 c 0.2478,-0.4946 0.9899,-1.237 0.2478,-1.7319 0.907,-0.33 1.072,-1.5673 1.402,-2.3925 0.4124,-2.7218 1.9797,-5.7736 2.3921,-8.5782 l -0.2474,0 c -0.165,-0.7424 1.402,-0.8249 0.8248,-1.8969 1.2374,-1.7326 1.3196,-4.0419 2.3922,-5.9392 l 0.8246,0.5774 z m -6.1863,22.5185 c -0.33,1.4023 -1.8148,2.3921 -2.1444,3.8766 0.6596,1.1549 2.3094,0.4128 2.7218,1.8148 -0.2475,1.2373 -0.9074,2.0622 -1.9794,2.7221 -1.5673,-0.0825 -3.7945,-0.165 -4.5369,-1.8148 0.5771,-3.1345 3.5467,-5.4439 5.4439,-7.8361 0.66,0 0.7424,0.8249 0.495,1.2374 z m 15.9193,0.4124 c -0.3299,1.0724 -0.8248,2.3097 -0.4949,3.3817 0.5774,0.9077 -0.5774,2.0622 0.165,3.0521 -0.165,0.6599 -0.8249,0.9074 -1.4848,0.9899 -1.1545,-1.567 -0.8249,-4.2067 -3.2992,-5.0315 -0.5775,-0.8249 -1.567,-1.8973 -0.9074,-2.7221 1.3198,-1.2371 3.2995,1.3198 4.4541,-0.5775 0.8249,-0.4124 1.5672,0.0825 1.5672,0.9074 z m -6.8459,3.6295 c 0.0825,0.9896 0.3299,2.3094 -0.2475,3.1343 -0.4949,0.4949 -1.237,0.6599 -1.8147,0.4124 -1.2373,-0.8249 -0.5771,-2.8043 -2.1444,-3.1346 -0.6599,0.7427 -0.5777,2.0622 -1.7323,2.3922 -1.9797,-0.6599 0.0822,-2.1444 -0.165,-3.2992 1.3196,-1.1549 1.4848,-3.9595 3.4646,-3.4645 1.072,1.3198 1.6494,2.5568 2.6393,3.9594 z m -67.0604,21.1986 c 1.7323,5.4439 3.2993,10.9704 4.7016,16.4971 1.6498,0 3.3817,-0.7424 5.1143,-1.1549 1.402,-0.1649 2.6393,-0.9898 3.9591,-1.0723 0.4124,4.1241 -0.2475,8.0011 0.165,12.043 4.4543,-0.6602 10.228,-2.0625 14.5998,-0.1653 l 0.2475,0.495 c -1.9797,4.2893 -5.0318,8.166 -8.0836,11.9602 -3.217,3.7944 -7.0937,8.166 -12.1252,8.5785 -3.2995,0.4124 -7.094,1.8147 -10.4757,0.0824 -1.8147,-0.3296 -3.4642,-2.1444 -5.1967,-1.8969 l 0.5777,5.3615 c -0.4125,0.4124 0.1647,0.9073 0.1647,1.4023 2.4749,0.2474 4.7018,-0.9074 7.0937,-1.1549 2.6396,-0.2474 5.5267,-1.3198 8.0013,-0.5774 0.5771,0.4949 0.4125,1.6498 0.0825,2.2272 -0.3302,0.9898 -1.7323,1.7322 -1.6498,2.7218 -3.4645,5.3617 -5.9388,11.3831 -10.7231,15.9197 -3.8767,3.7116 -9.0735,5.1967 -14.2699,5.1142 -0.33,-0.2477 -0.8249,-0.0825 -1.2371,-0.0825 -0.5777,0.9071 0,2.2269 0,3.2993 l 0.3297,0.3299 c 3.7942,-1.0723 6.764,-3.052 10.7232,-3.7944 1.0723,0.4124 0.4124,1.9797 0.0825,2.7221 -2.3097,7.1765 -4.2069,14.5176 -8.0011,21.0336 -2.1447,3.2171 -5.2793,5.9392 -8.9084,6.4341 -2.062,1.0721 0.4124,2.6393 0.4949,3.9592 0.165,0.2474 0.5774,0.2474 0.7424,0.0824 l 8.6607,-8.166 c 0.3302,-0.0825 0.5777,-0.1647 0.9901,-0.1647 l 0.33,0.8246 c 1.6497,11.8777 2.6393,25.6527 -6.7641,34.3137 -0.5771,0.5771 -0.0825,1.4023 0.33,1.8147 0.4124,0.3297 0.9074,0.6596 1.4023,0.3297 2.8871,-3.3818 4.2894,-7.3409 6.4338,-11.0529 0.2477,-0.3299 0.9076,-0.2474 1.2373,-0.0825 3.7945,8.4136 6.5163,17.322 7.6711,26.8079 -0.4124,4.2066 -1.4023,8.0832 -2.9696,11.7952 0.5777,0.9899 1.9798,0.8249 2.9696,1.1548 0.9902,-2.8871 1.6498,-6.1038 2.0622,-9.1559 0.4125,-1.6497 -0.4124,-3.2992 -0.165,-4.949 l 0.2475,-0.2474 c 7.7536,6.9287 15.4247,14.6823 17.0742,24.828 l -0.3297,9.8981 c 1.4023,0.1649 2.8868,0.5774 4.3716,0.0825 -1.1545,-3.9592 -2.0622,-8.2486 -2.3093,-12.2077 1.237,-1.0724 2.7218,0.2474 4.0416,0.6599 7.3412,3.2167 14.8473,6.1863 21.1161,12.1252 4.6191,4.949 6.4341,12.043 5.3615,18.6417 1.5672,1.4021 3.7119,2.1444 4.7018,4.2066 -0.165,1.7323 -0.0825,3.3821 -1.6498,4.2892 -2.4746,-0.4125 -3.9591,-4.9488 -7.0112,-3.2168 -5.5264,7.3412 -14.4349,8.661 -22.7659,7.0937 -8.2485,-2.0622 -15.5897,-5.3617 -22.6009,-10.4757 l 0,-1.1549 c 4.8665,-1.1548 9.3206,-3.6292 13.775,-5.8563 l -3.8767,-5.9389 c -5.9389,2.7221 -13.9402,3.2168 -19.7141,0 -7.8361,-4.4541 -13.445,-13.1151 -19.5489,-19.0542 0.165,-0.4946 0.0825,-1.1548 0.7424,-1.3195 5.5265,1.4848 11.0529,0.7424 16.4143,0.3299 0,-1.2373 0,-2.8043 -0.4946,-4.0419 -5.6917,2.2272 -13.8577,3.2995 -18.6418,-1.402 -9.2381,-7.1765 -10.6404,-18.8068 -14.3523,-28.87 0.2474,-0.4947 -0.4125,-1.2371 0.4124,-1.567 3.8767,1.1548 7.3412,3.3817 11.4656,4.0416 0.5771,0.4949 1.3195,0.7424 2.1444,0.4949 0.4949,-0.4949 0.4949,-1.2373 0.4124,-1.8969 -7.5886,-1.65 -15.8371,-7.094 -18.4768,-15.0126 -2.9693,-9.4855 0.5777,-18.8886 -0.7424,-28.7872 0.5777,-0.4947 1.2374,0.2477 1.8151,0.6602 3.4642,3.6292 6.351,6.4335 10.3104,9.0731 0.5774,-0.7424 0.9074,-1.6495 0.33,-2.5568 -5.0318,-3.2171 -8.9085,-7.9186 -10.8882,-13.2801 -1.8144,-10.3932 0.7424,-21.1989 7.0112,-29.3649 0.33,-0.4949 0.9074,-0.0825 0.9074,0.4124 1.6498,3.8767 4.1244,7.5887 6.5163,11.3003 l 0.4124,0 3.2171,-4.784 c -2.3094,-3.2992 -4.7844,-6.4338 -6.1039,-10.0633 l -0.4949,-0.4121 c 0.165,0.0822 0.165,-0.0825 0.2475,-0.0825 0.1649,-0.33 -0.165,-0.4949 -0.33,-0.7424 l -0.0825,0.165 c -1.1548,-8.496 2.8043,-16.9095 8.1661,-23.6733 2.1447,-2.5571 4.1244,-5.0315 5.7739,-7.7536 0.6599,0.165 1.1548,1.1548 1.5672,1.5673 1.732,5.0315 5.0315,9.3209 6.5163,14.3524 1.9797,-0.5775 3.7942,-1.5673 5.7739,-2.3097 -1.9797,-2.6396 -4.784,-4.2891 -6.3513,-7.2587 -2.5569,-3.7117 -2.6396,-9.0734 -0.8249,-13.1978 2.9696,-5.6911 7.0937,-11.2176 12.2077,-15.5894 2.2272,-1.4023 4.2069,-3.877 5.2792,-6.1864 l 0.6599,0.2475 z m 149.71021,22.4359 c 2.9695,8.0008 -2.6394,14.9298 -7.5062,20.6212 1.4848,0.7424 3.1346,1.1549 4.5369,2.3097 1.402,-0.4127 0.6596,-2.1447 1.3195,-3.0521 2.0622,-4.4543 3.712,-9.2384 7.0112,-13.0325 1.0726,-0.165 0.6602,1.1545 1.4026,1.6497 l 7.0937,9.2381 c 2.9693,5.5265 5.4439,11.4656 5.6914,17.8994 -0.9899,3.6292 -1.9797,6.2688 -4.2066,9.3209 -1.3201,1.732 -5.0318,3.5467 -2.6396,6.0214 l 2.1444,3.4642 c 2.1447,-2.0619 3.2995,-5.3615 5.4439,-7.3412 1.4023,-1.2373 0.9901,-3.8767 3.0521,-4.2066 1.6497,1.9797 2.6396,4.7018 3.382,7.2587 3.5467,10.3107 6.7637,23.0133 -2.9696,31.3443 -1.732,2.7222 -5.279,2.1447 -7.0112,4.6191 0.0825,0.7424 0.5774,1.4848 1.1548,1.8972 3.2171,-0.9895 5.6914,-3.8769 8.4135,-5.7739 l 3.2168,-3.2995 c 0.165,0.5774 0.6602,0.165 0.9901,0.33 0.4947,4.7018 0.4125,9.1559 0.9071,13.8574 0.33,3.6295 -0.4124,6.9287 -0.6599,10.5582 -1.0723,6.846 -6.4338,14.1874 -13.5275,16.0844 -2.1447,0.5774 -4.619,0.8249 -6.1863,2.1447 0.2472,0.6599 0.3299,1.4023 0.9074,1.8972 4.8665,-0.7424 9.2384,-2.5571 13.5275,-4.6193 -0.495,4.7015 -1.9795,9.3208 -3.7945,13.6099 -0.0822,1.6498 -0.6599,3.2996 -1.3195,4.7844 -1.7323,4.454 -4.6191,8.7434 -8.496,11.8777 -0.33,-0.33 -1.4023,0.0825 -0.9899,0.5774 -5.2789,3.7945 -12.8679,2.8871 -18.4768,0.4952 -0.49461,1.402 -0.57741,2.6394 -0.82461,4.1239 4.94901,1.0726 10.88791,1.5672 15.83691,0 0.33,0.1652 0.9077,0.0827 0.9899,0.5777 l -0.8249,1.5672 c -7.1762,9.4031 -15.58971,19.9613 -27.71491,20.2913 -3.2168,-0.4125 -6.5988,-1.4023 -9.8155,-2.3097 -1.3201,1.7323 -2.9696,3.9594 -4.5369,5.7742 -0.0825,1.567 2.0619,0.9071 2.8868,1.8969 3.2171,2.1447 6.5163,3.9595 10.6407,3.712 -0.4124,2.2272 -2.9696,2.8043 -4.619,3.8767 l -8.5785,4.5368 c -0.8249,-0.4952 -0.5775,0.9896 -1.4848,0.4947 -7.6711,4.0419 -17.9819,4.5368 -25.4055,-0.9899 l -4.7016,-4.2891 c -1.7322,0.2475 -3.2167,2.3919 -5.1965,2.8046 -0.2474,0.4949 -0.5774,0.165 -0.9076,0.0825 -1.0721,-1.4023 -0.4122,-3.4645 -1.0721,-4.9493 1.5673,-1.0724 3.2996,-2.2272 4.0417,-4.0417 0.5774,-4.1244 -1.897,-8.0835 0.6602,-11.7955 6.516,-11.2178 18.8064,-14.0224 29.1169,-19.1364 l 0.7424,0.4949 c -0.9071,4.2067 -2.062,8.5785 -2.7219,12.7027 1.567,0.0824 3.2996,0.9898 4.4541,-0.33 -4.2891,-14.1049 7.0937,-24.3332 15.3423,-34.2312 0.9073,-0.4124 0.9073,0.6596 1.1548,1.1549 -0.165,4.619 0.6599,9.3206 2.5568,13.3625 0.4953,0.4949 1.2376,0.0825 1.7326,-0.1653 l 0.2472,-0.2472 c -5.279,-11.6305 0.1649,-24.7456 5.4439,-34.9738 0.5777,-0.9071 -0.1647,-2.8868 1.4848,-2.6396 2.55711,3.2998 3.79441,7.3414 7.09371,10.0632 0.6599,0 0.9898,-0.7424 1.5673,-1.1548 -9.15571,-8.9907 -8.90821,-23.343 -6.6813,-35.1383 0.7424,-0.9073 1.5673,0.165 2.2272,0.33 2.3919,1.9797 4.3716,4.8665 7.4236,5.6914 0.8249,-0.0825 1.9797,-0.165 2.2272,-1.1549 0.0825,-0.5774 -0.1652,-1.072 -0.4952,-1.4845 -1.0721,0.33 -0.8249,-1.2373 -1.9794,-0.8248 -8.9085,-5.1968 -10.80541,-15.3423 -14.02271,-24.0033 l -1.3196,-5.4442 c 1.6495,-0.4946 3.2168,0.6602 4.6191,1.4848 l 6.18661,2.0622 c 0.9896,-0.7424 0.6596,-2.3097 0.7424,-3.3817 l -0.4952,-0.4952 c -4.3716,0.2477 -8.08331,-1.1549 -11.63031,-2.8868 -3.4642,-2.4747 -7.0937,-5.6917 -8.5782,-9.7334 -2.8049,-3.9591 -4.4544,-8.4135 -6.764,-12.7026 0.165,-0.6599 0.6599,-1.1548 1.3198,-1.3198 4.2894,0.8249 8.661,1.1549 12.9501,2.5572 0.6599,-1.4023 0.6599,-2.6397 0.9073,-4.2067 0.4125,-0.5777 0.7424,-1.4025 0.4125,-2.1449 -1.1549,-0.9071 -2.0622,0.7424 -3.2168,0.8248 -4.3719,1.2374 -8.7434,-0.0824 -13.0328,-0.907 -7.8361,-4.1244 -13.6925,-12.1255 -17.9819,-19.7141 0.1653,-2.4747 3.382,-1.1546 5.1143,-1.8145 0.5774,0.4122 1.402,-0.0825 2.1447,-0.0825 0.4946,0.9071 1.0723,-0.3299 1.8147,0.0825 1.6495,0 3.2993,0 4.7016,0.4946 l 0.2471,-0.2474 c -0.3296,-3.7117 -0.6596,-8.2486 1.1549,-11.5478 l 0.4952,0 c 0.4949,0.0825 1.402,0.4124 2.0619,0.6599 l -0.4946,0.3297 c 2.4743,-0.0822 4.7015,1.98 7.0934,2.3924 0.2474,-2.8049 1.2373,-5.6092 2.5571,-8.0835 0.165,-2.8871 2.8046,-5.4443 1.9794,-8.5785 l 0.2478,-0.2475 c 8.0011,5.6089 13.28001,14.2699 18.06411,22.4359 z m -84.54701,-13.8577 c 2.3918,7.9189 7.9183,14.3527 12.7023,21.0339 9.0737,8.9085 20.2915,13.94 30.2723,21.8585 4.5366,3.3821 8.661,7.1762 13.0326,11.0529 -0.0825,1.2376 1.0723,0.2475 1.3198,1.4023 -0.33,0.6599 0.4949,0.0825 0.5774,0.5774 0.4124,0.8249 2.0619,1.1548 1.567,2.3097 2.7221,3.7942 4.4544,8.2485 6.8465,12.2902 2.1444,5.4442 4.2891,10.8056 5.279,16.662 2.8043,17.322 0.4949,35.386 -8.5785,50.563 -8.0836,11.3006 -19.3014,21.6938 -31.6743,26.9728 -8.6607,4.5365 -17.3217,10.6407 -22.601,19.2192 -1.0723,2.1444 -2.4743,4.1241 -3.052,6.4338 -0.7424,1.237 -1.0721,2.887 -1.8145,4.2891 -1.567,2.4746 -2.3094,5.5264 -3.2992,8.331 -1.1549,0 -1.2373,-1.3198 -1.6495,-2.0622 -2.8046,-7.8361 -7.7539,-15.2598 -13.4453,-21.1161 -0.2475,-0.33 -0.165,-1.0724 -0.7424,-0.9074 -1.8144,-2.1447 -3.7117,-3.5467 -5.5264,-5.3615 0,-1.0723 -0.9074,-0.8248 -1.4848,-1.3198 -3.7942,-3.6292 -8.0011,-6.9287 -12.7026,-8.9084 -6.9287,-4.784 -15.1773,-7.7536 -21.1161,-14.8473 -4.2894,-5.444 -8.3313,-11.1356 -11.3828,-17.0745 l -0.7427,-0.7424 c -1.6498,-5.1965 -3.3817,-10.7229 -4.5366,-15.6719 0.2475,-1.0724 -0.4124,-1.897 -0.0825,-2.6394 -0.7424,-0.7423 -0.1649,-1.8972 -0.3299,-2.8045 0.0825,-0.9071 -0.8249,-1.6495 -0.165,-2.3919 -0.7424,-5.6092 0,-9.1562 0.165,-14.8473 l -0.2475,-0.4125 c 0.6599,-5.0318 1.6498,-10.3107 3.7942,-14.93 0,-2.5569 2.145,-4.2892 2.3921,-6.7638 2.5572,-6.7637 8.0011,-12.7026 13.0329,-18.1465 3.5467,-2.9696 6.3513,-6.2689 10.063,-8.661 l 0.165,0.0825 c 7.0112,-7.3412 17.2394,-9.5684 24.9105,-16.6621 l 4.6191,-3.7944 c 5.5267,-5.7739 10.063,-11.4653 12.1255,-18.9715 0.7421,-1.3198 0.4949,-2.8046 0.9896,-4.1241 0.1652,0 0.2477,-0.165 0.3299,-0.2477 l -0.3299,-0.4947 1.3198,0.8246 z m -66.8954,1.3201 c 0.5774,3.4642 2.9696,7.9183 0.2475,11.0528 -5.0315,4.4541 -6.4338,10.7229 -8.0011,16.7446 -4.1241,-3.6295 -4.949,-9.9808 -3.4645,-15.0948 2.9696,-4.5368 5.7742,-9.4034 9.8983,-13.1978 0.5774,-0.1647 1.1548,-0.33 1.3198,0.4952 z m 138.8222,3.2992 c 4.2069,5.444 10.31051,12.1252 6.68131,19.1365 -0.8249,1.7322 -1.732,3.5469 -2.88681,4.9492 -1.2373,0.0825 -1.1548,-1.0723 -1.6498,-1.8972 0.5774,-6.8462 -3.052,-12.3729 -7.5886,-17.157 -0.4949,-3.0517 1.1545,-5.6089 1.7322,-8.0835 1.567,0.4124 2.5569,2.1447 3.7117,3.052 z m -128.1818,8.4136 c -0.4946,7.3411 -5.6911,14.1049 -12.7848,16.332 0.2472,-6.0216 2.8043,-12.0427 8.5782,-15.3422 1.3198,-0.4949 2.3921,-1.4848 4.0419,-1.4023 l 0.1647,0.4125 z m 121.913,5.0315 c 2.8043,3.217 3.8767,7.1761 4.2891,11.383 -1.1548,0.4125 -2.2272,-0.8248 -3.382,-1.0723 -5.7739,-3.1346 -9.4856,-9.4859 -8.7432,-15.6722 2.7221,1.2373 5.1965,3.3817 7.8361,5.3615 z m -54.4402,12.4551 c 3.0518,3.7945 7.6711,6.3516 11.3003,9.2384 -2.6393,0.5777 -5.9389,0.4124 -7.8361,-2.1444 -3.5467,0.9896 -7.1759,3.2992 -10.8879,1.2373 -0.9898,-0.9076 -2.1444,-2.0622 -3.7116,-1.4026 -1.0724,0.5777 -2.3094,1.4848 -3.712,0.8249 -0.9896,1.4848 -3.0518,1.0724 -4.4541,0.8249 -1.7322,-0.9074 -3.1343,-2.8043 -5.5264,-2.0619 -1.8972,0.7424 -3.9592,2.3918 -6.1864,1.4023 3.1346,-3.1346 7.2584,-6.4341 10.228,-9.8983 3.712,-3.9595 6.5991,-9.4859 9.0734,-14.4352 2.9693,5.7742 6.4338,11.9605 11.7128,16.4146 z m 52.0481,-0.3297 c 1.8147,0.7421 3.382,1.8145 5.3617,2.2269 -0.6599,1.9797 -2.4749,1.8148 -4.3719,2.2272 -2.8046,-0.0825 -5.6914,-0.4124 -8.0011,-1.9797 l -0.0824,0.3299 c -0.8249,-0.3299 -1.4023,-1.5669 -2.1447,-1.3198 0,-0.6596 -1.3196,-0.3296 -1.3196,-1.2373 l -1.0723,-0.4946 c -2.0622,-2.3922 -4.2069,-4.7019 -5.3617,-7.5062 5.9391,-2.3921 10.5582,2.8043 14.6001,6.2688 0.6596,0.495 1.567,0.9896 2.3919,1.4848 z m -109.1277,-7.4236 c -3.5467,6.3513 -9.898,11.7952 -17.4869,11.3003 -1.567,-0.4124 -3.3817,-0.4124 -4.8665,-1.0724 5.1965,-2.3093 10.3107,-5.4439 14.3524,-9.733 2.5571,-0.4949 5.4439,-0.9901 8.001,-0.4949 z m -44.4594,7.2584 c 1.4023,3.2998 4.784,6.764 2.6396,10.4757 -2.6396,3.382 -3.1345,7.5886 -4.6193,11.3831 -0.1647,1.8969 -0.1647,4.3716 -0.4947,6.4338 -3.9594,-2.6397 -5.8563,-7.4237 -5.4442,-12.208 0.6599,-3.6292 1.7323,-7.0937 3.7945,-10.1455 0.7421,-2.1447 2.3921,-3.9594 3.6292,-5.9391 l 0.4949,0 z m 180.88981,1.4848 c 1.8972,4.1244 4.949,7.8361 6.6813,12.043 0.5771,4.2891 1.237,9.7333 -1.8973,13.445 -1.0723,0.9073 -1.8147,2.3918 -3.217,1.6497 -0.33,-3.7119 -0.2475,-7.8361 -1.4023,-11.3831 -0.7424,-3.6292 -5.3615,-5.6914 -4.2891,-9.7333 0.8249,-2.4743 1.5673,-4.8665 3.217,-7.0112 l 0.9074,0.9899 z m -96.17751,10.8056 c 0.1649,1.8145 -0.0825,3.7117 -0.495,5.4442 -2.6396,0.6597 -5.2792,-1.8147 -7.8361,-0.2477 -2.2272,0.7424 -4.7015,2.6396 -7.0937,1.0723 -1.8147,-0.4121 -2.5571,-2.6393 -4.7843,-2.1446 -2.3094,0.7423 -4.1241,2.4746 -6.8459,2.1446 -0.4125,-0.3299 -1.2374,-0.8246 -0.9074,-1.4023 3.7942,-1.9794 6.9284,-4.8665 10.8054,-6.4335 3.5467,1.4021 7.1764,1.0721 10.2279,-0.9901 2.3925,0.7424 4.3722,2.5571 6.9291,2.5571 z m -71.0198,-0.9898 c 0.1652,7.0937 -4.4541,13.1153 -10.558,16.497 0.0823,-5.8566 0.8246,-12.4551 6.5988,-15.9196 1.2373,-0.4949 3.8767,-3.6295 3.9592,-0.5774 z m 157.79391,1.6497 c 4.4541,4.2066 5.5264,10.2283 5.7739,15.6722 -2.5571,-0.6599 -4.7018,-3.217 -6.9287,-5.1967 -2.7221,-2.8868 -3.87671,-6.5988 -3.46451,-10.4755 l -0.2475,-0.2474 c 0.74241,-0.5774 -0.4946,-1.9795 0.65991,-2.4747 2.0622,-0.165 2.3922,2.4747 4.2069,2.7221 z m -78.85561,-1.7322 -1.9797,0 c 0.33,-0.5774 1.6498,-1.1549 1.9797,0 z m 18.8065,1.7322 c 1.732,0.2475 2.8043,-1.2373 4.2891,-1.6497 3.4645,2.8871 7.3414,4.7015 10.6407,7.8361 -0.4125,1.1548 -1.7323,1.1548 -2.7221,1.5672 -3.2993,0.6599 -5.279,-3.1345 -8.331,-1.8147 -2.7219,0.9074 -6.2689,2.3922 -8.9907,0.4949 -2.6396,-2.6396 -6.8465,-1.4023 -9.9808,-0.7424 -3.1345,-0.5774 -0.9074,-4.454 -2.3921,-6.5162 l 0.2474,-0.2475 c 2.8046,0.8249 6.3513,1.1548 8.8257,-0.6599 2.9696,-0.33 5.2792,2.9696 8.4138,1.7322 z m -20.5387,0.5775 c 0.9074,3.3817 1.1548,7.0112 1.4023,10.6404 1.237,1.7322 3.4642,3.1345 3.0518,5.5264 -1.4848,0.4952 -1.6498,1.7325 -1.4848,3.1345 -2.8043,2.8046 -2.5569,7.0937 -4.2066,10.5582 -1.7323,6.9288 -2.6394,14.1874 -4.2891,21.1162 -1.2374,0 -1.4848,-1.1549 -1.4848,-2.2269 -0.0825,-3.1346 -0.33,-6.0217 -0.8249,-9.1562 0.5774,0 0.9074,1.1548 1.6498,0.5777 0.4949,-1.2373 0.3299,-2.8871 1.6494,-3.712 1.6501,-5.6914 2.3922,-12.1252 4.3722,-17.8994 0.3297,-1.6497 0.3297,-3.7941 1.567,-5.1964 -0.4949,-2.1444 0.4121,-5.1965 -1.567,-6.7638 -1.0726,1.0724 -1.3201,2.6396 -1.4848,4.2069 -1.4026,5.7736 -1.1548,12.3727 -2.8874,17.8166 -0.9071,0.5774 -1.4845,1.4848 -1.402,2.5572 l 0.0825,0.8248 c -0.2475,0 -0.8249,0.0825 -1.0723,-0.4124 -0.165,-2.3097 -0.5775,-4.8668 -0.0825,-7.1765 1.4848,-2.4743 -0.7424,-4.5365 -0.8249,-6.9284 l -0.4947,-5.7742 c -0.6601,-0.165 -1.65,0.0825 -1.815,0.9074 -0.0822,0.3299 0.2478,0.8249 -0.2474,0.9898 -1.2374,-0.5774 -1.0721,-2.0622 -1.0721,-3.382 0.2472,-0.9896 1.0721,-1.3195 1.4845,-2.2272 3.547,0.4125 2.8871,4.8668 3.7945,7.5065 0.2474,1.7322 -0.165,3.7941 0.8248,5.2789 0.7424,0.4125 1.0724,-0.5771 1.1546,-1.1548 0.4124,-6.6813 0.9901,-12.8676 2.7221,-18.9714 0.4124,-0.495 0.9074,-0.7424 1.4848,-0.6599 z m -65.8233,5.1139 c -2.5569,7.4237 -9.898,13.2804 -17.8163,13.5278 -0.7427,0.1647 -1.8151,0.3297 -2.475,-0.0828 l 0.2478,-0.7424 c 4.3716,-2.8868 8.9081,-6.2688 12.1252,-10.8053 1.8972,-1.5673 4.4541,-2.1447 6.7637,-2.4747 0.495,-0.165 1.0724,0.2475 1.1546,0.5774 z m 139.2347,3.3821 c 1.9797,4.5365 7.09391,6.8462 10.64091,9.8158 0.4947,0.1647 0.4947,1.072 0.2472,1.3195 -4.3716,0.9074 -8.41321,-1.6495 -11.96021,-3.5467 -4.4544,-1.9797 -6.4338,-6.6813 -8.331,-10.8057 l 3.0517,-0.165 0,-0.0825 c 2.2272,0.9074 4.4544,1.8973 6.3514,3.4646 z m -85.5366,-1.8973 c -0.0825,0.8249 -0.6599,1.2373 -1.2373,1.7323 -4.2891,0.6599 -2.8044,5.9388 -4.8668,8.6607 -2.3097,0.6599 -3.6292,-3.1343 -5.7739,-1.3196 -2.1444,1.9795 -1.1546,5.114 -3.1346,7.0113 0.2478,1.2373 -0.3297,2.0619 -0.8249,2.9695 -0.8246,-0.9076 0,-2.7221 0.2478,-4.0419 l 0.7424,-0.6599 c -0.4125,-2.8871 0.7424,-5.9389 0,-8.661 -0.495,-0.4949 -0.9902,-1.072 -1.8148,-0.8249 -0.9898,1.2374 -1.4023,3.0521 -1.4848,4.3716 l -0.2474,0.2478 c -1.4023,-1.4023 -1.0724,-5.3618 -4.0419,-4.0417 -1.6495,0.9896 -0.5772,2.6394 -0.4947,4.0417 -1.4848,-0.5774 -2.8871,-2.4747 -4.7843,-2.4747 -2.1447,1.4023 -5.3614,2.3097 -7.8358,1.0724 1.237,-0.5774 1.9794,-2.1447 2.8868,-2.6394 2.3919,-2.2271 4.6191,-4.2069 7.3412,-5.6916 2.5571,0.4949 5.3617,1.4023 7.8361,1.0723 1.2373,-0.7424 2.5571,-2.0622 4.2069,-1.2373 3.6291,2.3921 8.7431,2.3097 12.2076,-0.33 0.4125,0.165 1.0724,0.0825 1.0724,0.7424 z m 22.7656,0.6599 c 0.3299,0.8249 0,1.9797 0.165,2.9693 -0.5775,0.4125 -1.7323,-0.3299 -1.8148,0.5777 -0.2472,-0.2474 -0.4949,-0.4952 -0.9073,-0.4127 -0.9899,1.8972 0.7424,3.547 0.3299,5.6917 0.3302,4.5368 -1.3198,9.0731 -2.2269,13.1975 -1.3198,-5.2792 0.2475,-10.2279 0.4122,-15.6722 -0.2475,-2.2271 -3.2993,-2.8871 -2.8043,-5.3614 2.3096,0.4946 4.454,-0.9899 6.8462,-0.9899 z m 5.6914,2.0622 c 1.8147,0.7424 4.0416,1.5673 5.8564,0.2472 l 0.8249,0 c -0.495,3.6295 -5.0315,4.3719 -6.6813,7.5889 -1.4848,0.5772 -2.0619,-1.2373 -3.0521,-2.0622 -1.1548,-2.1447 -0.7424,-5.5267 -0.8246,-7.6711 1.4848,0.2475 2.4744,1.4848 3.8767,1.8972 z m 32.3342,8.7432 c -2.0619,1.6498 -4.784,1.5673 -7.0112,0.4949 -1.7322,-0.7424 -2.9696,-3.2167 -5.114,-2.2269 -1.6497,1.3196 -3.4645,2.3922 -5.3617,3.2168 -1.732,-1.3195 -3.6292,-2.8043 -5.7739,-3.4642 -1.5673,-1.9797 -1.5673,-4.6194 -0.4949,-6.7638 3.052,-1.0723 5.0315,2.1444 8.166,1.1549 2.3097,-0.1653 4.0417,-3.0521 6.3513,-1.6501 3.712,2.145 6.8463,5.7742 9.2384,9.2384 z m -37.8606,-2.2272 c -0.33,0.4128 0.2474,1.5673 -0.5775,1.4026 -0.6599,-1.815 -0.7423,-4.0419 -0.9073,-5.9389 2.4743,0.0823 1.3198,3.0518 1.4848,4.5363 z m -24.003,-1.402 c 1.8973,4.1241 2.8871,8.661 4.1244,13.0326 0,3.7944 1.4021,7.0112 1.567,10.7232 l -0.3299,0.9073 c -0.9899,-3.6292 -1.5673,-7.6714 -1.8148,-11.3006 -0.4124,-0.9898 -1.072,-1.8147 -1.9797,-2.3096 -1.567,0.5777 -0.8246,2.6396 -0.8246,4.0419 -0.3299,1.3198 -0.2474,2.9693 -0.7424,4.4541 -1.1548,-3.712 0.0822,-8.3308 -0.1649,-11.9603 0.1649,-0.5774 0.5774,-1.4847 -0.0825,-1.8972 -0.9074,-0.0825 -1.4023,0.6599 -1.6498,1.4023 -0.8249,2.0619 -1.2373,4.2069 -2.3921,6.0214 -0.1647,0.2474 -0.5772,-0.3297 -0.4947,-0.6596 1.237,-4.3719 2.3919,-8.661 4.4541,-12.6205 l 0.3299,0.165 z m 35.0558,8.661 c -0.4946,2.1447 -1.402,4.4541 -3.3817,5.7739 -0.7424,0.2474 -1.2373,-0.33 -1.4848,-0.8246 0,-4.0422 1.4023,-8.1663 3.7942,-11.6306 1.4023,1.5673 0.9076,4.6191 1.0723,6.6813 z m -59.8014,-3.4645 0.4125,1.3198 c -0.6599,-0.3297 -1.4848,0.0825 -1.8148,0.5774 0.1653,1.7323 1.6498,2.8868 1.8973,4.5369 -2.8868,-0.5777 -6.0214,2.1444 -9.1557,0.3296 -2.0624,-1.072 -4.4543,-2.3921 -6.764,-1.1545 l -2.5568,0.9074 c 0.5771,-1.8973 2.0619,-3.3821 3.2992,-5.1968 0.6599,-1.6498 2.3097,-2.3094 3.5467,-3.2995 3.0521,1.2373 6.3516,0.7427 8.9909,-0.9896 1.2374,0.3297 1.4848,1.9797 2.1447,2.9693 z m 53.3679,1.1548 c 0.2472,2.5572 -0.5777,5.114 -0.4952,7.6711 -1.3195,0.4125 -1.897,-1.4023 -2.7218,-2.1447 l -0.0828,-6.6812 c 0.7427,-2.3919 2.5574,0.2475 3.2998,1.1548 z m -34.3137,0.2475 c -1.0723,2.6396 0.0825,6.6812 -2.9695,7.8361 -0.0825,-2.3097 1.2373,-5.0315 -0.2475,-7.0937 -0.8249,-0.165 -0.9074,0.8249 -1.4023,1.072 0.0825,0.6602 0.2475,1.1549 -0.165,1.7326 -0.3299,0.1647 -0.5774,-0.1653 -0.6596,-0.4125 0.0822,-1.0723 1.1548,-1.4023 0.8246,-2.5571 0.2475,-0.9074 0.3302,-2.0622 0.8249,-2.8046 1.2373,0.7424 4.0416,0.2478 3.7944,2.2272 z m 138.82231,-1.8972 c 20.8686,24.7456 27.055,56.5846 26.725,88.5889 -0.165,0.9898 -0.0825,1.8972 0,2.9695 -1.1548,-0.0827 -0.165,1.0721 -0.4949,1.4846 -0.6599,10.7231 -2.5572,20.374 -5.1965,30.5197 -1.4848,2.8868 -1.5673,5.8564 -3.1345,8.7432 -0.3297,2.5571 -2.0622,5.0318 -2.5569,7.5062 -1.3198,3.7944 -3.547,7.2586 -4.5368,11.1356 -1.1549,0.9071 -0.9896,2.3096 -1.8973,3.382 -2.3921,3.6292 -3.7941,7.8361 -6.516,11.1353 -8.9084,13.445 -20.9514,26.39539 -34.2314,36.21089 -0.2478,0.0825 -1.3198,0.33 -0.9074,0.8249 -7.4237,5.3617 -15.58971,10.0633 -23.67331,14.2699 -1.0723,0.6599 -3.052,1.0723 -4.5368,1.8972 -0.9896,1.0721 -2.5569,0.6599 -3.5467,1.6498 -1.7323,0.2472 -3.2171,1.402 -4.8665,1.8972 -16.7446,5.444 -33.6541,9.5681 -51.8006,9.1556 -0.7424,-0.2474 -2.2272,0 -3.0518,-0.2474 -12.7029,-0.2475 -25.488,-1.897 -37.2835,-4.949 -0.495,-0.7424 -1.1546,0 -1.8145,-0.495 -1.4848,-0.8248 -3.712,-0.6599 -4.6193,-1.9797 l -0.0822,0.4125 c -13.2804,-4.2066 -26.0655,-11.3006 -37.7782,-19.3014 -0.7424,-0.6599 -1.5673,-1.2373 -2.0622,-2.1447 -0.2475,-0.0825 -0.2475,0.2475 -0.2475,0.4949 l -0.2477,-0.6599 -0.4122,0.165 c -2.0622,-1.5673 -4.2894,-3.2995 -5.9389,-5.0315 -2.9695,-2.1447 -6.1041,-4.2069 -8.9084,-6.8462 -0.4124,-1.4026 -2.0622,-2.2272 -3.1346,-3.3821 -7.2583,-8.00099 -14.0224,-16.08459 -19.30129,-25.24019 0.1649,-0.7424 -0.9074,-0.9902 -0.9899,-1.6501 -3.217,-5.6089 -6.8462,-11.3828 -8.9909,-17.4866 -6.5163,-14.1877 -10.6404,-29.7774 -12.5377,-45.3671 -1.0723,-17.5691 1.3196,-35.221 5.6914,-51.8828 0.4125,-0.4124 0.33,-1.3195 0.495,-1.8972 1.6497,-4.9487 2.9695,-10.063 5.0315,-14.7648 1.1548,-0.6597 0.4949,-2.5569 1.8972,-3.2168 0.165,-0.9074 1.0721,-1.4023 0.8249,-2.4746 3.3817,-6.4338 6.9287,-12.9501 10.6404,-19.1365 0.90739,-1.0723 1.73219,-2.5571 3.13449,-2.9695 l 0.2475,0.2474 c -3.217,10.2283 -4.45439,21.1162 -5.44389,31.9218 -0.1653,11.6303 1.1548,24.6629 3.38169,35.881 2.9696,9.898 5.6917,20.0438 10.9706,29.1169 2.9693,5.6917 6.6813,11.0531 10.2283,16.4973 3.8767,4.7841 8.2485,9.6506 12.7026,14.105 21.2811,20.3737 46.9341,32.1689 75.3089,34.9735 0.0825,0.165 0.2474,0.0825 0.4121,0.0825 l -0.0822,-0.3299 c 2.1447,0.6599 3.6292,-0.0825 5.609,0.5774 6.6815,-0.2475 13.5272,0.0825 20.1259,-0.7424 20.7865,-2.2269 39.6754,-9.6506 56.9149,-20.7862 13.03291,-8.9909 24.66311,-20.704 33.48911,-33.819 8.2485,-13.445 15.1772,-27.8799 18.8064,-43.4696 2.2272,-10.7229 3.4645,-20.7034 3.0521,-31.9215 0,-3.7117 -0.4124,-7.6711 -0.7424,-11.2181 -0.9074,-2.2269 -0.4124,-4.2891 -1.2373,-6.5988 -0.9071,-5.4439 -2.3919,-10.2282 -4.2891,-15.2597 0.2474,-0.495 0.8249,-0.9074 1.4023,-0.5774 z m -91.47601,1.485 c -0.8249,0.9896 -2.3922,1.4845 -3.7945,1.402 -0.165,-0.8248 -0.165,-1.8972 0.4949,-2.3921 1.2374,-0.5771 2.5569,0 3.2996,0.9901 z m 19.3838,0.9071 c 1.1549,-0.165 2.5569,-2.3097 3.2171,-0.0825 1.8972,2.8871 3.6292,5.7742 5.1965,8.7435 -1.9798,-0.4124 -3.9595,-2.1444 -6.2691,-1.3198 -3.0518,2.0622 -7.5884,0.9898 -10.3105,-0.9074 -1.9794,0.0828 -3.382,1.6498 -5.114,2.2272 l -2.9696,1.237 c 0.7424,-1.1548 2.1447,-2.2269 3.4645,-2.8868 l 5.6914,-4.0416 c 0.33,-0.4952 0,-1.4023 -0.7423,-1.1548 -2.0623,-0.4125 -2.3919,1.8972 -4.042,2.4746 -2.1444,1.3195 -4.3716,2.4744 -6.7634,3.2992 1.1545,-2.5571 2.8043,-5.2789 4.5365,-7.6711 1.402,-1.7322 4.1242,-2.3096 6.0214,-1.3198 2.4743,1.4023 5.2792,2.6396 8.0835,1.4023 z m -78.1132,0.33 -0.1649,0.1649 c -0.33,-0.1649 -0.9899,-0.7423 -0.5774,-1.3198 l 0.3299,-0.4946 c 0.33,0.4124 0.9899,1.1545 0.4124,1.6495 z m -59.5542,0.8249 c 0.5775,5.8563 0.5775,11.4652 -3.2167,15.9196 -1.4848,2.2269 -2.8049,4.949 -4.9493,6.5988 l -0.5774,-0.2475 c -1.8145,-5.0318 -0.9074,-11.2181 1.0723,-16.0846 1.7323,-2.5572 3.2996,-5.6914 6.0214,-7.4237 0.7424,-0.0825 1.6497,0.4125 1.6497,1.2374 z m 184.02411,5.2789 0.0825,-0.165 c 0.6599,2.3922 2.4744,4.2069 2.6396,6.9288 l 0.3297,0.3302 c 0,4.0416 0.1652,7.0934 -0.5771,10.9704 l -0.9902,0 c -5.5264,-5.6092 -11.1353,-13.8578 -7.2584,-22.0238 l 0.7424,-1.4845 c 2.0619,1.4023 3.7117,3.3817 5.0315,5.4439 z m -198.29391,1.6498 c -1.1549,5.6914 -0.33,11.1353 -0.2475,17.0745 -1.1548,0.2474 -2.0622,-1.1549 -2.9696,-1.7323 -3.382,-3.9591 -4.949,-9.0734 -4.0416,-14.5998 0.9073,-2.4747 1.1548,-5.1968 2.5568,-7.4237 l 0.4125,0.165 4.2894,6.5163 z m 131.4807,-5.3615 c -0.0822,1.9795 -0.907,4.1242 -2.9692,5.279 -0.8246,0.5774 -1.9795,1.3198 -3.0518,0.6599 -1.3198,-1.7323 1.237,-2.8046 1.8969,-4.1241 1.2373,-0.9077 2.5572,-2.1447 4.1241,-1.8148 z m 80.83561,17.2392 0,0.8249 c -0.4949,-0.33 -0.5774,0.4949 -0.9073,0.7424 -0.9896,2.0622 -2.9693,4.784 -5.444,4.8668 l -0.2474,-0.4125 c 1.2373,-5.8563 0.2474,-11.9605 0.8248,-17.8993 2.0622,-1.1549 1.4848,-4.1244 3.9592,-4.6191 2.7221,4.5366 3.8769,11.2178 1.8147,16.4968 z m -128.75921,9.4859 3.382,12.1254 c -0.8246,0.4125 -1.237,1.4846 -2.2272,1.8145 -3.2167,-9.7333 -6.3513,-19.7138 -8.4132,-29.6946 -1.0724,-3.2993 -2.6396,-6.3513 -3.7945,-9.5681 5.0318,7.9186 8.3311,16.4968 11.0529,25.3228 z m 30.9319,-24.6632 c 1.0724,2.3922 3.1346,4.3719 4.8665,6.2689 0.8249,0.1652 1.8148,-1.402 2.1447,0 0.2475,0.7424 -0.4949,1.4848 0.2475,1.9797 2.4746,-1.897 5.7739,-0.6596 8.661,-1.4845 0.4124,0.8249 -0.6599,1.2373 -0.8249,1.9797 -2.0622,2.0619 -5.1143,3.0518 -7.9186,1.8969 -1.0723,0.6599 -0.9898,1.9798 -0.9898,3.2171 0.3299,0.3299 0.4124,1.237 1.0723,0.9896 2.2272,-0.4125 4.1244,-1.732 6.4338,-1.5673 l -0.2475,0.8249 c -1.8972,1.7322 -3.052,4.3718 -5.4439,5.6092 -2.3097,0.8248 -2.1447,-2.3922 -4.0416,-2.0622 -1.8151,1.4023 -3.3821,-2.3922 -4.2894,0.4124 -1.0724,0.165 -2.2272,-0.33 -3.0521,-0.9899 -1.6495,-2.0619 -1.4848,-4.454 -0.6599,-6.6812 l -0.3297,-1.9797 c 1.897,0.2474 3.3818,2.3096 3.7942,4.1241 0,0.7424 0,1.65 0.8249,1.815 0.8249,0 1.0723,-0.8249 1.5673,-1.3198 1.9797,-3.382 -3.2996,-4.2069 -2.6397,-7.3412 0.495,-1.7325 0.6599,-3.9591 0.4125,-5.6917 l 0.4124,0 z m -43.6342,2.7222 c -0.8249,0.3299 -1.4026,-0.5775 -2.0622,-0.9896 l -0.0828,-0.5777 c 0.7424,0.1652 1.7325,0.9074 2.145,1.5673 z m -14.0228,0.8248 c 2.8046,0.6599 6.0214,0 8.4963,-1.3198 1.567,-0.1649 1.4845,1.5673 2.1444,2.3922 0.2475,0.7424 0.4125,1.7322 0.4125,2.4744 1.9794,1.9797 3.382,4.5368 6.2688,5.1142 0.33,0.4125 0.8249,0.9074 0.4949,1.402 -0.2474,0.3303 -0.6599,0 -0.8249,-0.0822 -1.1548,-0.2477 -1.7322,-2.6396 -3.217,-1.6497 -1.402,1.402 1.4848,2.0622 1.8972,3.2992 -0.4124,0.4949 -1.4847,-0.0825 -1.8147,0.8249 0.8249,3.2995 4.4544,4.4544 6.764,6.1863 -1.0723,0.5777 -2.3096,-0.7424 -3.2995,-1.402 -0.8249,-0.7424 -1.6498,-1.6498 -2.8868,-1.0723 -0.4124,0.3299 -0.4124,0.9895 0,1.3195 l 3.5467,3.547 c 0.165,0.7424 -0.9074,0.8249 -1.1548,1.4848 0.9073,3.9591 5.7741,3.4645 7.0937,6.8462 l -1.2373,-0.4949 c -5.5265,-3.2993 -9.3209,-9.9805 -15.2598,-12.3727 -0.7424,-0.165 -1.3195,0.2475 -1.6495,0.8249 0.33,1.0721 0,2.4744 0.9896,3.2168 0,1.8147 2.4746,4.454 0.2477,5.4442 -1.6497,-0.0825 -3.1345,-0.8249 -4.5368,0.1647 -0.8249,0.4952 -0.9074,1.4848 -0.8249,2.2271 0.6599,0.8249 1.4023,-0.0824 2.1447,-0.0824 l 3.877,2.2271 c -0.4128,0.8249 -0.66,1.5673 -0.2478,2.4747 l -0.2475,0.2474 c -0.6596,-0.3299 -1.2373,-1.1548 -0.8248,-1.8972 -0.4125,-1.2373 -2.062,-0.5774 -3.1343,-0.5774 -1.2373,0.8249 -0.165,2.0622 -0.9899,3.0518 1.9797,0.3302 1.0724,2.6396 2.4747,3.547 1.1548,0.4949 1.8972,1.0723 1.8972,2.3918 l 2.1444,1.4026 c -0.4949,0.7421 -0.4949,1.6492 -1.1548,2.3094 -2.3097,-2.8043 -5.444,0.0822 -7.8361,0.8246 -2.8868,1.0724 -5.279,-1.0723 -7.5884,-2.3919 -3.052,0.9896 -6.0216,3.3821 -9.5686,1.8148 -0.4946,-3.3818 -1.8144,-6.5163 -1.6495,-9.9805 3.9592,1.8144 8.496,1.5673 12.4552,-0.1653 2.5571,0.6599 5.1142,2.8871 7.7536,1.3201 0.4124,-0.2477 0.2474,-0.9076 0.0825,-1.3201 -0.8249,-1.1548 -2.3919,-0.6596 -3.382,-1.4845 -3.0518,-2.4746 -6.9285,-1.5673 -10.1455,0 -2.3097,0.0825 -4.1241,-0.9898 -5.9389,-2.0622 -1.8147,-2.5568 -0.4124,-5.6089 -0.3302,-8.5785 1.65,-1.1548 2.9698,1.1549 4.6193,1.2373 2.6396,0.7422 5.5264,-0.1649 7.7536,-1.4023 1.7323,0.0825 2.9696,1.5673 4.6194,1.8973 2.8868,0.0825 6.3513,0.6599 7.9183,-2.3919 -0.2472,-0.6602 -0.2472,-1.5673 -1.0724,-1.65 -2.2269,-0.4125 -3.5467,1.65 -5.7736,0.9076 -2.7221,-0.1653 -4.7843,-3.8769 -7.5889,-1.65 -3.1343,1.0723 -5.8564,0.0827 -9.0731,-0.495 -0.33,-2.5568 0.9895,-5.114 1.6494,-7.5883 1.6498,0 3.0521,0.9896 4.7841,0.9896 3.1345,0.3299 6.434,-3.7942 9.2386,-0.2472 3.0518,0.9896 7.0935,0.3299 9.8981,-1.3201 0.8248,0.3299 1.6497,0.8249 2.6396,0.4952 0.2474,-0.6599 0.9074,-1.4848 0.3299,-2.1447 -0.9898,-1.6498 -2.8046,-1.4848 -4.2893,-1.4848 -2.3919,1.2373 -5.609,2.3097 -8.3308,0.9899 -4.2894,-3.712 -8.496,2.6396 -13.0328,0 1.4847,-2.7221 1.4847,-7.3412 5.4439,-7.8361 2.7221,-0.8249 6.4341,-2.7218 8.8259,0.2474 z m 24.9931,2.2272 c -0.2474,0.2475 -0.3299,0.6599 -0.6599,0.7424 l -0.4124,0 c 0.4949,-0.8249 -0.165,-2.5574 1.2373,-2.8871 0.6599,0.7424 -0.165,1.4023 -0.165,2.1447 z m 64.5029,0.4122 c 2.9696,0.9901 7.259,1.1548 9.8986,-0.6599 2.062,-0.0822 3.2993,1.8147 5.3615,1.8147 1.8969,2.1447 2.3921,5.0318 3.2992,7.7536 -3.8766,2.4747 -6.4338,-2.2269 -10.4754,-1.4848 -3.2995,1.5673 -7.5886,1.8973 -10.6407,-0.5771 -3.2168,-0.4952 -5.5264,2.3922 -8.826,1.6498 1.3201,-1.6498 3.2171,-2.3922 4.2891,-4.2894 0,-0.4125 0,-0.9074 -0.4946,-1.0724 -2.0622,0.7424 -3.217,2.9696 -5.3617,3.4645 l -1.4848,0.5775 c 0.6602,-3.2171 4.7018,-4.4544 7.094,-6.7641 1.8144,-2.1444 5.4439,-2.5568 7.3408,-0.4124 z m -58.564,-1.2371 c 0.6599,3.2993 1.3198,7.0113 0.9074,10.3105 -0.6599,0.8249 -1.0721,-0.4124 -1.7323,-0.4124 0,-1.3196 0.2478,-2.8044 -1.0723,-3.3818 l -0.1647,0 c 0.7424,-2.0622 1.3195,-4.2891 1.7319,-6.5163 l 0.33,0 z m -64.2558,2.062 c -2.3921,5.3617 -3.547,12.2079 -9.5683,15.1772 -0.9071,0.1653 -2.0619,0.7424 -2.8868,0.0825 l 0.1647,-0.9071 c 3.547,-4.2894 6.0213,-8.9909 7.9186,-13.9402 1.4023,-0.9071 2.8871,-1.5673 4.5368,-1.732 l -0.165,1.3196 z m 82.2376,0.0825 c -0.4124,0 -0.2474,-0.5772 -0.1649,-0.7422 0.0825,0.2472 0.4946,0.495 0.1649,0.7422 z m 79.84551,0.5774 c 0.1647,0.9898 0.7424,0.8248 1.4023,1.3198 2.3919,4.8668 4.784,9.0734 8.166,13.5275 0.1647,0.4949 -0.0827,0.9898 -0.5777,0.9898 -8.0835,-1.1545 -10.9703,-10.1454 -12.3726,-16.9095 1.2373,0 1.9797,1.2373 3.382,1.0724 z m -104.83851,0.1649 c 0.0825,0.0828 0,0.1653 -0.0825,0.2475 -0.33,0.0825 -0.33,-0.1647 -0.4947,-0.4124 0.1647,0.2477 0.4122,0.0825 0.5772,0.1649 z m 23.9207,3.877 c 0.4949,4.619 -1.7323,8.2482 -1.8147,12.4551 0.5774,1.9798 0.7424,4.2891 2.1447,5.9389 -0.8249,0.8252 -2.2269,1.6501 -3.4646,1.2376 -1.4845,-1.9797 -3.4642,-3.9594 -5.9388,-4.2069 -0.9896,0.8249 -0.9074,2.3097 -1.402,3.4645 -0.4952,0.33 -1.3201,0 -1.1549,-0.6602 -0.1652,-1.0723 0.8249,-2.3918 -0.4124,-3.1342 -0.9899,-0.165 -0.9077,1.1548 -1.4023,1.5672 -0.8249,-2.5571 2.3919,-5.6089 -0.4949,-7.5886 -1.0724,-0.4124 -1.2374,0.9074 -1.6498,1.4845 l -0.2475,1.3201 c 0.5775,-4.0422 2.5572,-8.4963 3.7945,-12.7854 1.402,4.3716 1.8144,9.0734 2.3921,13.775 0.33,0.9073 0.9071,1.8147 1.8145,2.3919 1.1548,0.0827 3.2995,1.8972 3.7942,-0.2472 0.7424,-6.3513 1.6497,-12.8676 3.2998,-18.8893 1.3195,0.9899 0.4946,2.5572 0.7421,3.877 z m -30.8495,-2.9693 0,0.4124 c -0.5774,-0.0827 -1.5672,-0.3302 -1.2373,-0.9901 0.495,0.2475 1.1549,-0.2472 1.2373,0.5777 z m 33.5713,3.9591 c -0.165,0.0825 -0.2474,0.2472 -0.4949,0.2472 -0.33,-0.9895 -0.33,-1.8969 0,-2.8868 l 0.5774,-0.2474 c 0.9074,0.8248 0,1.8972 -0.0825,2.887 z m -25.3227,1.1549 c 0,0.1647 0.165,0.4124 -0.0825,0.4949 -0.4124,0.0822 -0.33,-0.3302 -0.33,-0.5774 0.165,-0.0828 0.2475,0.165 0.4125,0.0825 z m 2.3097,0.8249 -0.4128,-0.33 0.4128,0 0,0.33 z m -0.4128,0.5771 c 0.2478,0.4124 0.1653,1.1548 -0.3296,1.2373 l -0.33,0 c -0.2475,-0.4949 0.33,-1.072 0.6596,-1.2373 z m 61.9461,2.9696 c 3.1346,0.1649 6.0216,0.0825 8.7438,-1.7323 1.5672,-0.3296 2.7221,1.0724 4.2066,1.4023 2.0622,0.9074 4.619,0.9074 6.5987,0 1.2374,2.1447 1.0724,5.1965 1.5673,7.7536 -3.0518,0.5774 -6.6812,3.4645 -9.4858,0.6599 -3.6292,-3.052 -7.0937,1.8973 -11.2182,0.4125 -1.8969,-0.6599 -3.5467,-2.3919 -5.6911,-2.0622 -2.1449,1.4023 -4.8668,2.8871 -7.4236,1.8972 -1.6498,-0.6599 -2.4747,-2.4746 -4.2069,-2.7221 -1.4023,0.5774 -1.8972,1.9797 -3.0521,2.7221 0.4125,1.8969 2.3097,0.4122 3.382,1.2373 2.3097,3.0518 6.1864,2.0622 9.1557,1.2373 3.5469,-2.6396 6.3515,1.9798 10.1457,0.9071 2.4747,0.3303 3.877,-2.1444 6.2688,-1.567 2.8871,1.8973 6.4341,3.2168 9.7334,1.732 0.4952,-0.6596 1.5672,-0.6596 2.2271,-1.0721 1.2374,1.9798 0,4.4541 0.495,6.5988 1.3198,3.1346 -2.6394,1.8145 -3.7942,3.1346 -3.2995,2.2269 -6.764,0.1647 -9.8158,-1.1549 -3.4642,-0.0827 -6.8462,3.7942 -10.2283,0.8249 -4.1241,-4.4544 -8.0835,2.8043 -12.6201,-0.3302 -2.5571,-2.7219 -5.4439,-0.4947 -8.0836,0.4949 -0.1649,-2.3919 -3.217,-4.7015 -1.1548,-7.0112 4.0419,-4.6193 5.8564,-10.0633 10.5579,-14.4349 3.3821,1.3198 7.0937,0.165 10.4758,-0.8249 1.4023,-0.2474 2.1446,1.4848 3.2167,1.8973 z m -69.287,-0.33 0,0.4949 c -0.3299,0.0825 -1.0723,0.0825 -1.1548,-0.4949 l 0,-0.8249 c 0.4949,0.0825 1.0721,0.2475 1.1548,0.8249 z m 33.2414,4.6191 c -0.8249,1.815 -0.6602,4.0419 -1.4848,5.8566 -1.8972,-1.6497 -2.9693,-4.2069 -2.3097,-6.7637 0.4125,-1.2373 0.0825,-2.8046 1.4023,-3.547 0.9896,1.1548 3.0521,2.4746 2.3922,4.4541 z m -23.838,-3.2993 c -0.5777,1.0724 0.9071,3.2171 -1.3201,3.0518 -0.4946,-0.8249 0.9077,-1.4845 0.5777,-2.5568 0.2472,-0.1653 0.4125,-0.5775 0.7424,-0.495 z m 30.189,4.949 0.3302,0.4125 c 2.1447,-3.0521 5.9389,-1.3198 8.4135,-3.547 0.5772,0.7427 -0.2474,1.4848 -0.4952,2.2272 -1.8969,2.3096 -3.2167,6.8462 -7.0937,6.1866 -1.8144,-0.9077 -3.8766,-1.1549 -5.8563,-1.6498 -0.6597,-1.7322 0.4124,-3.6295 1.2373,-5.1142 0.9073,-0.8249 1.7322,-2.2269 3.052,-2.1445 0.495,1.0724 -0.4124,2.5569 0.4122,3.6292 z m -49.0782,0.7424 c -0.33,1.4023 1.2373,2.5572 0,3.712 -0.9074,-1.3198 -0.9899,-3.382 -1.6498,-5.0315 0.9074,-0.0828 1.2373,0.7424 1.6498,1.3195 z m 21.0336,1.6498 c -0.2472,0.0825 -0.4124,0.165 -0.5771,0.165 l 0.3299,-0.7424 c 0.3297,0 0.1647,0.4124 0.2472,0.5774 z m -15.4244,3.7942 c -0.5777,1.1548 -1.5673,-0.0822 -2.3922,0.1649 0,-0.9895 -0.5774,-1.9797 -0.4124,-2.7218 1.8144,-0.2474 1.567,1.8145 2.8046,2.5569 z m -64.0914,0.9901 c 4.1245,8.0008 3.0521,17.5689 0,25.6524 -1.7319,0.2475 -2.0619,-1.6497 -2.7218,-2.7218 -5.4439,-6.2691 -5.7739,-16.0846 -2.4746,-23.343 1.1548,-0.9077 0.9073,-3.547 2.9696,-2.9696 l 2.2268,3.382 z m 78.6909,-2.145 c 0.0825,0.3303 -0.1646,0.495 -0.4124,0.7424 l -0.3299,0 c -0.0825,-0.4946 0.0824,-0.9071 0.3299,-1.237 0.33,-0.1653 0.4124,0.2472 0.4124,0.4946 z m 114.57191,3.4645 c 1.732,6.1042 3.0518,13.7747 -0.5777,19.4664 -1.3195,1.9794 -2.4744,3.9592 -4.0417,5.6914 -0.8248,-0.0825 -0.8248,-1.2373 -1.3195,-1.8147 -0.6602,-3.0518 -1.4026,-6.1864 -2.145,-9.2384 -0.2471,-4.3713 0.8249,-8.3305 2.3097,-12.2074 0.8249,-2.0622 1.9797,-3.7945 3.547,-5.3618 1.6495,0.2478 1.6495,2.2275 2.2272,3.4645 z m -132.80121,-0.4949 c 0.1653,0.4949 -0.3296,1.1548 -0.8246,0.7424 -0.9073,-0.5774 -0.2474,-1.4023 -1.0723,-2.0622 0,-0.5771 0.6599,-0.4949 0.9898,-0.8249 0.6599,0.2478 0.6599,1.4026 0.9071,2.1447 z m 19.7141,-1.237 c 0.165,0.3296 -0.1649,0.3296 -0.3299,0.4949 l 0,-0.4949 0.3299,0 z m 9.0735,0.2472 c 0.4124,3.1345 0.1649,6.7637 0.2474,10.1457 -0.4124,0.4949 -1.0723,0.4949 -1.4848,-0.165 -0.7424,-2.7218 0.4125,-5.7739 0.4125,-8.7434 0.2474,-0.4125 -0.165,-1.6498 0.8249,-1.2373 z m -21.1162,3.6294 c 1.4848,1.7323 4.1244,2.6394 5.5264,4.7016 -0.3299,0.2474 -0.7423,0.4949 -1.0723,0.8249 -0.2475,0.9898 1.7323,0.4124 0.8249,1.4023 -0.8249,0.1649 -0.8249,-1.0724 -1.7323,-0.9074 -1.2373,-1.4848 -1.0723,-3.5467 -3.1342,-4.3716 -1.2374,-0.33 -1.8148,-1.3198 -2.4747,-2.5571 -0.4949,-0.165 -1.1548,0.3299 -1.4023,0.9073 0,0.5774 -0.2474,1.4023 -1.0723,1.2374 -0.7424,-0.0828 -0.9896,-0.66 -1.2373,-1.2374 -0.1647,-0.7424 0.2477,-1.5672 0.8248,-1.8972 1.2374,0.4949 1.5673,-1.0723 2.6397,-0.7424 0.6599,0.9899 1.6494,1.6498 2.3096,2.6396 z m 41.7371,1.1546 c -0.1647,0.8251 0.9073,1.0723 0.8248,1.8147 1.2374,2.145 0.33,4.6194 -0.0824,6.7638 0.9073,1.6497 2.6396,2.1444 4.0416,3.2992 3.7945,2.8871 5.6917,7.4237 4.8668,11.7131 -0.0825,4.1244 -3.5467,7.5061 -6.7637,9.1559 -1.8148,0.4124 -3.4643,1.3198 -5.1968,0.8248 -0.9896,-0.3299 -1.9794,-1.0723 -3.1343,-1.1548 -0.7424,-0.3299 -1.3198,-1.1548 -1.6497,-1.8972 3.7119,0 7.2589,-1.8972 10.0632,-4.5369 0.0825,-0.5771 -0.6599,-0.9895 -1.1548,-1.1548 -2.8871,0.4124 -5.5264,0.2477 -8.0836,1.4026 -0.5771,-0.0825 -1.237,-0.1653 -1.3195,-0.9074 0.4947,-1.2376 1.3195,-2.2272 2.3919,-2.8871 1.7322,-2.7221 5.1143,-3.547 5.8564,-6.6812 -0.4122,-0.7424 -1.4845,-0.495 -1.897,-0.165 -3.9594,1.4023 -9.1559,3.2992 -9.8983,8.0011 -0.2474,0.5774 -0.9073,0.4946 -1.567,0.4946 -1.6497,-1.3195 0.2472,-3.3814 -0.2474,-5.114 -0.165,-2.8043 0.2474,-5.6089 -0.33,-8.0835 l -0.4949,-0.4125 c -2.1447,1.8972 -2.7218,4.8668 -3.8767,7.3412 -0.2477,0.5777 -0.0825,1.3201 -0.5777,1.8147 -0.4946,-3.0518 0.7424,-6.9287 -2.0619,-8.8259 -0.7424,0 -1.4848,0 -1.9797,-0.4947 0.7424,-0.4124 2.3097,0.5772 2.8046,-0.8249 -0.165,-1.072 -1.5673,-0.8246 -2.2272,-1.567 0.5774,-0.4124 2.0622,0.9071 2.8046,-0.0824 1.732,-1.8973 0.8249,-4.2069 1.2373,-6.5163 l 0.4947,0 c 2.6396,-3.877 7.3411,-5.9389 11.878,-4.7843 2.0619,0.4949 3.8766,1.7322 5.2787,3.4642 z m -103.5185,19.9616 c -0.3299,0.0822 -0.5774,-0.0828 -0.5774,-0.3303 0.495,-6.1038 2.9696,-11.3 1.4848,-17.7341 1.237,-2.2269 3.1343,-3.7117 4.8665,-5.4439 2.1447,8.496 -1.1548,16.7442 -5.7739,23.5083 z m -17.9815,-18.5593 c -0.7424,6.5165 0.9895,13.115 3.6292,18.8064 -3.2996,-0.0824 -4.7016,-3.7941 -6.8466,-5.6914 -2.0619,-3.8766 -1.7319,-8.4132 -2.3093,-12.8673 -0.0825,-1.8147 -0.0825,-3.2173 0.4124,-4.8668 2.0622,0.9074 4.5366,2.2272 5.1143,4.6191 z m 94.1153,-4.1241 c -0.1653,0.1649 -0.1653,0.4124 -0.4124,0.5774 l -0.165,0 c -0.0825,-0.2475 0.6599,-0.495 0.165,-0.8249 0.2471,-0.0825 0.2471,0.165 0.4124,0.2475 z m 148.47311,14.0224 c 2.3094,8.4957 2.7218,17.8166 2.9693,26.8075 0,10.5579 -0.6599,21.776 -3.1346,31.5919 -4.5366,22.6009 -14.8473,43.882 -29.5296,61.5339 l -0.4125,0 c -16.0846,19.71379 -37.28291,32.33419 -59.71911,40.99489 -8.3311,2.9696 -16.6618,4.8665 -25.0753,6.2688 -0.3303,-0.4124 -0.495,0.2478 -0.8249,0.2478 -1.2373,0.2471 -2.7221,-0.0828 -3.6292,0.7424 -13.7752,1.3195 -29.6946,1.8969 -43.882,-1.4848 -10.0633,-1.9797 -19.7141,-5.1143 -28.9522,-9.0734 -13.5278,-5.444 -25.4055,-14.3524 -36.9536,-24.0033 -9.3206,-8.66089 -18.559,-18.14679 -24.8281,-28.78749 -0.5771,-0.0822 -0.4947,-0.6596 -0.5771,-1.072 -8.49599,-13.8575 -14.68269,-28.7873 -17.81689,-44.7894 -0.8249,-0.1653 0,-1.0724 -0.7424,-1.2374 -0.165,-2.1446 -0.2472,-4.2066 -1.0721,-6.1863 l 0.2472,-0.7424 c -3.6292,-21.3636 -1.0721,-42.8921 5.114,-62.6885 1.3201,11.1354 2.3097,22.2707 5.1967,32.9111 4.1242,16.3321 10.97069,31.0969 21.44639,44.6247 1.0721,0 0.2472,0.9074 1.0721,1.3196 3.6294,4.4543 8.0835,8.9084 11.9602,13.4452 2.0622,1.8145 4.1244,4.1242 6.5166,5.444 l -0.0825,0.0825 c 1.4845,0.9073 2.2269,2.7221 4.0416,3.1345 5.8564,4.5366 12.8679,8.1661 19.2189,11.9602 3.7945,1.0724 6.5991,3.9595 10.4757,4.8668 1.3198,1.4848 3.547,0.9071 4.8665,2.3919 5.8567,1.8972 11.3006,3.877 17.4045,5.1965 4.2069,1.2376 8.5785,1.9797 12.9501,2.6396 0.5777,0.165 0.1652,-0.5774 0.8248,-0.2472 -0.0824,0.1647 -0.2471,-0.0827 -0.4124,0.2472 9.9808,1.2373 21.2811,1.3198 30.602,-0.0825 2.2272,0.165 4.619,-0.9071 6.9287,-0.7424 5.9389,-1.3195 11.7128,-2.0619 17.4042,-3.9591 17.2394,-4.4541 33.2416,-13.9402 47.09901,-25.9829 0.5774,-0.2472 1.0724,-0.9899 1.7323,-1.4021 9.5683,-9.0734 18.3943,-18.477 25.4055,-29.3649 6.0213,-9.9805 10.2282,-20.7862 14.2699,-31.4269 0.6599,-2.6393 0.9898,-5.3614 2.4743,-7.6711 -0.2471,-1.732 1.0724,-3.5467 0.7424,-5.4439 l 0.4952,-0.8249 c 0.8246,-4.8665 2.2269,-10.8882 1.9795,-15.7544 0.3299,-0.9074 0.2474,-1.8969 0.2474,-2.8046 -0.0824,-1.3198 0.165,-3.2168 0.2475,-4.6191 1.9797,4.3719 2.9696,9.2382 3.712,13.94 z m -50.6458,-9.4859 c 0.4122,1.8973 -0.3302,3.7945 0.4122,5.4442 -0.2475,4.1242 1.2373,8.9907 1.4023,13.2798 -1.7323,0 -2.2269,-2.1444 -3.2996,-3.2168 -1.9794,-5.8566 -4.2066,-13.0325 -2.8043,-19.7138 2.0622,0.7424 2.8868,2.8046 4.2894,4.2066 z m -121.99551,-3.7117 0,-0.3299 0.4125,0.3299 -0.4125,0 z m 140.30701,22.6832 c -0.9073,0.8248 -1.9797,1.3198 -3.052,1.3198 3.217,-5.6914 4.8665,-12.5377 4.9493,-19.3839 -1.3198,-3.3817 2.8868,-2.9693 4.2891,-4.6191 1.0723,8.0011 0.9073,17.4042 -6.1864,22.6832 z m -137.17241,-21.2809 c -0.33,-0.2474 -0.9902,-0.7424 -0.33,-1.1548 l 0.165,0 0.165,1.1548 z m 21.6935,-0.6599 c -0.2475,0.495 -0.4949,0.165 -0.9074,0.165 l -0.1649,-0.0825 c 0.2471,-0.0825 0.8248,-0.6599 1.0723,-0.0825 z m -1.6498,0.0825 c 0,0.165 0.165,0.4125 -0.0824,0.4949 -0.2475,0.0825 -0.33,-0.1649 -0.495,-0.2474 0.165,-0.0825 0.33,-0.33 0.5774,-0.2475 z m 23.2606,1.402 c -0.2475,1.8973 -2.5569,2.2272 -3.6292,3.547 -1.0724,0.495 -0.5777,-0.7424 -1.2373,-1.072 0.4124,-1.8973 2.6393,-2.145 3.9591,-3.2996 0.4949,0 0.6599,0.4947 0.9074,0.8246 z m -46.8513,2.8874 -0.6599,0 c -0.0825,-1.0726 -0.7424,-2.8046 0.1649,-3.4645 0.5775,0.9896 0.9899,2.2269 0.495,3.4645 z m 9.4858,-1.8972 c -0.2474,1.6495 -1.0723,3.5467 -0.2474,5.1964 0.4949,-0.4949 1.2373,-1.1548 1.9797,-0.7423 0.7421,2.1446 5.3614,0.5774 3.3817,3.6292 -2.4743,-0.6597 -5.2789,-0.8249 -7.0112,-3.1343 l 0.2475,-4.4544 c 0.4124,-0.6599 1.0723,-0.9896 1.6497,-0.4946 z m 17.6517,-0.1653 c 0,1.7326 -0.1647,4.0419 1.0723,5.5267 -0.4124,0.9074 -0.6599,2.3919 0.2477,3.0518 -0.5777,0 -1.0726,0.6596 -1.32,1.1546 -0.4125,4.1244 -0.5772,8.6612 -0.6597,12.1254 0.33,1.8145 2.5569,2.3097 3.4643,3.547 -1.2374,0.8249 -2.5572,-0.3299 -3.7117,-0.8249 -0.495,-0.9076 -1.5673,-0.9076 -2.3922,-1.4023 -4.2891,-2.2271 -6.1863,-7.0937 -5.9389,-11.878 0.33,-5.2786 3.877,-9.5677 8.661,-11.3003 l 0.5772,0 z m 21.2811,2.3097 c -0.2475,1.3198 -1.8973,1.8972 -2.8046,2.8046 -0.4947,-0.165 -1.1546,-0.2475 -1.3196,-0.8249 0.4125,-1.4023 2.1444,-1.8972 3.2168,-2.8046 0.4949,0.0825 0.6599,0.4124 0.9074,0.8249 z m -44.1292,1.6498 c -0.6602,1.1548 -1.4026,-0.165 -2.0622,-0.2475 -0.2475,-0.4949 0.3296,-0.8249 0.4949,-1.3198 0.9896,-0.2475 1.1548,0.9898 1.5673,1.5673 z m 63.0181,0.8248 c 3.0521,0.165 5.4439,-3.382 8.4135,-1.0723 3.382,1.9797 7.5886,0.9074 10.8057,-0.4949 3.052,1.4023 6.5163,3.0517 9.9805,1.8972 1.2373,-0.5774 2.4749,-1.4023 3.9594,-1.4848 l 0.2475,0.33 c -0.5774,2.7221 -0.7424,5.9388 -1.6498,8.6606 -3.2167,0.495 -6.9287,2.7222 -10.1455,0.8249 -4.2893,-2.8043 -8.496,1.8973 -12.95,0.0825 -3.9595,-3.2992 -7.9189,1.3198 -12.2083,0.165 -2.0619,-2.6396 -4.0416,-5.0315 -6.7635,-6.9285 -0.5774,-1.7322 0.7424,-3.217 2.1447,-3.8769 3.2168,-1.7322 4.7841,2.6396 8.1658,1.8972 z m -68.5446,-1.5672 c 0.0822,0.0824 0,0.1649 -0.0827,0.2474 l -0.2475,0 0,-0.3299 c 0.165,0 0.2475,-0.0825 0.3302,0.0825 z m 2.5569,4.2893 c 0,0.0825 -0.0825,0.1647 -0.165,0.2469 l -0.0825,-0.3296 c 0.0825,0 0.0825,0.1652 0.2475,0.0827 z m 21.4461,1.567 c 0.8248,3.8767 1.6494,7.8361 2.6396,11.7128 -0.0825,0.7424 -1.0724,0.6599 -1.5673,0.4949 -1.4848,-0.7424 -1.5673,-2.5571 -1.8972,-3.7944 -0.9071,-2.3919 -0.9899,-5.114 -2.6396,-7.2584 0.5777,-1.1549 3.1345,-4.7016 3.4645,-1.1549 z m -8.3311,2.1444 c -0.8246,2.3097 0.4125,5.0315 1.0724,7.3412 -1.8148,-0.9896 -1.3198,-3.2992 -3.0518,-4.3716 0.2472,-1.2373 -0.9076,-1.9797 -1.2373,-2.9696 0.3297,-0.6596 1.1548,-0.5771 1.732,-0.7423 0.5774,0.0827 1.0723,0.3299 1.4847,0.7423 z m -12.7851,0.5775 c 0.6599,5.1964 1.5673,10.2282 2.2272,15.4247 -3.2995,-3.3817 -3.2995,-8.1661 -4.1244,-12.7851 0.0825,-1.1549 -0.9896,-3.2171 1.0724,-3.2171 0.4124,-0.1649 0.6599,0.33 0.8248,0.5775 z m -14.5173,1.9797 c 3.4645,1.9797 8.0008,-4.5369 10.1457,0.9896 0,3.052 0.9896,5.7741 1.9795,8.4137 -1.8148,-0.4124 -3.5467,-1.8147 -5.6089,-0.9073 -1.7323,0.9898 -3.8767,1.3198 -6.0214,1.1548 -2.0622,-1.0723 -4.4541,-2.4746 -6.929,-1.5673 -1.0721,0.495 -2.1444,1.5673 -3.3817,1.3198 -1.7323,-3.217 -2.6394,-6.5165 -3.712,-9.8158 2.5571,0.165 5.4442,0.9074 7.5889,-1.5672 2.2269,0 3.8767,1.9797 5.9389,1.9797 z m 43.4696,-1.6495 c 0.5774,3.7117 -0.5775,6.516 0.4949,10.1455 -0.2475,0.4949 -0.9899,0.9898 -1.4023,0.4124 -1.6495,-3.2995 -0.5774,-7.0112 0,-10.6407 l 0.9074,0.0828 z m -16.7446,7.2584 c -0.0825,0.1653 -0.0825,0.4124 -0.3299,0.5774 -1.0721,-0.3299 -1.6498,-1.7322 -2.7219,-2.2272 -1.9797,-1.8147 -4.3718,-2.6393 -6.1863,-4.5365 l -0.1652,-0.8249 c 3.5469,1.4848 7.0112,3.9591 9.4033,7.0112 z m 65.2456,-1.9797 c 2.7221,-0.5772 6.5163,-2.8043 9.2381,-0.2472 3.4645,1.8145 6.7641,-0.33 9.9808,-0.9899 -0.6599,3.2993 -2.3918,6.7635 -3.5467,9.7331 -0.2474,0.7424 -0.8249,1.5673 -1.8147,1.2373 -2.9693,0.4124 -4.7019,-2.7221 -7.6711,-1.8972 -3.547,1.8147 -8.3311,1.7325 -11.4656,-0.8249 -3.5467,-0.6599 -6.7635,3.7944 -9.9805,0.6602 1.3198,-2.7221 0.5774,-5.4442 1.072,-8.0839 3.4645,0.7424 5.6917,-2.3094 8.9085,-1.402 1.6497,0.9074 3.1345,2.3094 5.2792,1.8145 z m -67.6377,3.2995 c 3.7944,4.2066 5.2792,9.5683 6.3516,15.0948 1.072,2.2272 -0.9074,5.3614 1.6497,6.8462 1.5673,-0.2475 2.3919,-1.8972 3.2993,-3.0518 -0.33,-5.3617 -2.3097,-9.8158 -4.2894,-14.5998 -0.4122,-1.0724 -1.402,-2.0625 -1.0724,-3.382 4.7019,3.2992 7.0112,8.4135 6.1042,13.7749 0.0824,2.8043 -0.7424,5.8564 0.2474,8.7435 1.1549,0.165 2.2269,1.9797 3.3818,1.1548 0.2474,-0.3299 0.4952,-0.7424 0.7423,-1.0723 0.9077,0.7424 0.33,2.3921 1.3201,3.2167 0,1.1549 -1.3201,1.1549 -2.1449,1.5673 -3.3818,0.7424 -5.7739,-1.732 -8.6607,-2.5568 -2.9696,0.8248 -5.9389,3.0517 -9.1559,1.3198 -1.7323,-0.495 -3.2171,-2.3922 -5.1968,-1.5673 -1.8972,0.9896 -3.7942,2.5569 -5.9389,1.9794 -3.9591,-2.2271 -7.1759,-5.4439 -10.3932,-9.0731 l 0,-0.33 c 3.2173,1.1549 5.5267,-3.2995 8.496,-0.5777 3.1346,2.3097 7.259,1.3201 10.3108,-0.4946 3.382,0.6599 6.4338,4.2891 10.2282,1.8972 0.4949,-0.0825 0.9074,-0.6602 1.1548,-0.9898 -0.5774,-3.2171 -3.9594,-0.7424 -5.9391,-1.7323 -2.0619,-0.6599 -3.5467,-3.382 -6.1861,-2.0622 -2.3921,1.6498 -5.8566,2.4747 -8.496,0.7424 -1.32,-1.0723 -3.217,-1.9794 -4.8668,-1.0723 -2.0622,1.4023 -4.8665,1.7322 -7.2586,1.5672 -1.0724,-1.3198 -2.1447,-3.052 -3.3821,-4.2069 0.4125,-0.5771 -0.7423,-0.8246 -0.4121,-1.4847 -1.0726,-0.7422 -0.9899,-2.1445 -2.0622,-2.6391 0.4949,-0.6602 -0.7424,-0.9901 -0.4949,-1.5673 3.8766,-3.9597 7.6711,1.4845 12.0427,0.3297 3.052,-1.2373 7.0112,-1.732 9.9808,0.4124 1.2373,2.6397 2.4743,5.6092 4.6193,7.6712 0.4946,0.1649 0.7424,-0.0825 1.0721,-0.4125 -0.6599,-0.9071 0.2474,-1.4848 -0.3297,-2.3919 l 0,-5.8566 c 1.072,-0.9071 2.3919,-1.1546 3.7939,-0.6599 0.9076,0.5777 1.9797,1.8972 3.052,1.0723 0.4125,-0.4946 0.2475,-1.237 0,-1.732 -1.4847,-1.4023 -3.3817,-2.9695 -5.6914,-1.9797 -0.5774,0.3297 -1.3198,0.4125 -1.8969,0.7421 -0.3302,-2.3918 -1.3201,-4.619 -0.9901,-7.0112 2.5571,0.9077 4.8668,2.5572 7.0112,4.3719 z m 5.3617,-0.165 0.2475,0.4125 -0.2475,-0.4125 z m 16.9092,1.4848 c -0.0822,0.1647 0.0828,0.33 -0.1647,0.4125 l -0.2477,0 0,-0.4125 0.4124,0 z m -70.1121,14.5999 c 0.0825,4.1241 0.2475,8.6609 -2.1447,11.9602 -0.3299,0.0825 -0.5771,-0.0822 -0.8249,-0.33 0.5774,-7.0937 -0.9898,-13.5275 -4.0416,-19.2189 0.4949,-2.2272 1.6497,-4.1244 2.9693,-5.9388 2.1447,4.2066 3.1345,9.0734 4.0419,13.5275 z m 152.51471,-6.7638 c -3.38171,5.1965 -4.70151,11.3003 -5.19671,17.6516 -2.5569,-1.6495 -2.5569,-4.7015 -3.2168,-7.3409 0.4949,-1.3198 -0.0825,-2.887 0.4124,-4.2893 0.9074,-4.3719 2.8871,-8.2486 4.9493,-12.1255 l 3.13431,4.7843 -0.0825,1.3198 z m -160.68071,10.0633 c 0.6599,0.1647 0.2474,0.8246 0.3299,1.0723 0.165,2.7219 0.6599,5.6089 0.4949,8.1661 -2.6396,-1.1549 -4.784,-3.6295 -7.1764,-5.9392 -4.5363,-4.619 -6.1861,-11.7952 -4.0417,-17.8993 4.7841,3.5469 9.1559,8.8259 10.3933,14.6001 z m 172.31101,-12.373 c 1.4848,7.8361 -2.0619,15.2598 -8.1658,20.4565 -1.3198,0.9896 -2.6396,1.9798 -4.2894,2.2269 -0.4949,-4.2066 1.1549,-8.496 2.2272,-12.5376 -0.0825,-0.2475 -0.3302,-0.0825 -0.4949,-0.165 0.0825,-0.4949 0.4124,-0.0825 0.6599,-0.3299 l -0.2475,-0.2475 c 2.5572,-3.4645 4.4541,-8.2485 8.9909,-10.2282 0.5775,-0.33 1.1549,0.3299 1.3196,0.8248 z m -47.18131,2.0622 c 2.3094,-0.4949 4.7016,-2.2271 7.0112,-1.0723 1.3198,1.1548 3.1343,1.1548 4.7841,1.4023 -0.9899,2.9696 -2.9696,6.4338 -5.6914,8.661 -2.8871,-3.2171 -5.4443,1.6497 -8.5785,0.8249 -2.5569,0.2471 -4.2069,-1.7323 -6.2688,-2.7222 -3.877,1.2374 -8.9085,4.0417 -12.373,-0.0824 -3.5467,0.7423 -7.2584,2.7218 -10.5582,0.5774 -0.7421,-0.2475 -1.6495,-0.7424 -2.3919,-1.3198 -1.8972,-0.6599 -2.8868,1.6497 -4.6193,1.6497 -1.567,0.495 -3.4639,0.7424 -5.1137,0.2472 -0.7424,-2.0619 1.5673,-3.2992 1.4023,-5.3612 1.0723,-0.8248 2.4743,-0.9076 3.6292,-1.4847 0.9074,1.2373 2.1447,2.7221 3.6292,3.3817 3.217,1.8147 7.8364,1.8972 10.9706,-0.0825 2.4747,-1.3195 4.7841,-3.6292 6.3513,-5.9389 3.547,2.1447 7.2587,0.165 10.7229,-0.5771 2.3097,0.8246 4.4544,2.3094 7.094,1.8969 z m -51.0582,-1.5672 c 0,0.6599 -0.6599,0.5774 -1.0721,0.8248 -0.2477,0.9899 -0.5777,2.0623 -0.9076,2.8871 0.2475,-0.9901 -0.9896,-3.547 0.8252,-3.9594 0.5771,0.0825 0.7421,-0.165 1.1545,0.2475 z m 1.8972,8.5785 1.3198,10.3107 c 0.33,0.3299 0.6597,0.4124 1.0724,0.3299 l 2.2269,-2.3096 0.4124,-4.0419 c 3.1343,0.1652 5.9389,-0.165 8.661,-1.5673 2.8043,-0.0825 5.1965,3.1345 8.5785,1.8147 2.3094,-0.1647 5.0315,-2.9696 6.5985,-0.2474 l 4.2894,1.1548 c 2.1447,-0.4949 4.2066,-1.2373 6.2688,-1.897 4.0416,2.3094 8.661,2.3094 12.7026,0.2472 0.2475,0.0825 0.5777,0.1653 0.7424,0.495 -3.1343,3.6294 -7.5061,6.3515 -11.3003,8.9909 -1.4023,-0.8249 -3.2171,-1.3198 -4.8665,-0.9074 -1.7326,0.6599 -3.3821,2.0622 -5.5267,1.4848 -2.7222,0.0825 -3.9595,-3.6292 -6.8463,-2.1447 -2.1447,1.0724 -4.4543,1.9797 -6.9287,1.0724 l -4.4541,-2.1445 c -3.1345,1.4021 -7.5886,2.7222 -10.5579,0.1647 l -2.9696,-0.3299 c -0.9073,-5.4439 -1.1548,-10.6404 -1.1548,-16.4143 0.2475,-0.4125 0.8249,-0.2475 1.1548,-0.165 l 0.7424,0.7424 -0.165,5.3615 z m 3.4643,-3.7942 c 0.2477,1.3195 -0.4125,2.5568 -0.5772,3.4642 l -0.4949,-0.165 c 0.3297,-1.3198 -0.6599,-2.9693 0.2472,-4.3716 0.6602,-0.0825 0.7424,0.6599 0.8249,1.0724 z m -95.1052,3.6292 c 2.2271,6.4338 7.1762,12.9501 13.5275,16.0846 0.3299,0.6599 -0.7424,0.8246 -1.2374,1.0724 -5.9388,0.4946 -12.2901,-1.8973 -15.0122,-7.5887 l -4.7016,-11.3006 0.2475,-1.2373 7.1762,2.9696 z m 88.2592,-1.4023 c 0,0.2474 0,0.7424 -0.4124,0.5774 -0.5777,0.2475 -0.4125,-0.4124 -0.5777,-0.6599 -0.2472,-1.1548 1.3201,-0.9896 0.9901,0.0825 z m 111.35451,0.3299 c -1.8144,7.5887 -5.7739,16.4971 -14.2699,18.4768 -1.5672,0.3297 -3.6294,-0.3299 -5.1139,0.5774 -0.4125,-0.4949 -1.8148,0.165 -1.6501,-1.0726 5.8567,-3.4642 12.1255,-8.5782 13.9402,-15.4244 2.1447,-1.4848 4.7841,-1.5673 7.0937,-2.5572 z m -111.51981,2.3919 c 0,0.1653 0.0825,0.5777 -0.3299,0.5777 l -0.2472,0 c -0.1652,-0.4124 0.1647,-0.6599 0.5771,-0.5777 z m 155.97931,7.5889 0.0824,0 0,0.6599 -0.0824,0 0,-0.6599 z m -173.54871,5.5264 c 2.7221,0.7424 5.4442,-0.5774 7.7539,-1.8147 2.9696,1.1548 6.0214,3.1346 9.5684,2.2272 1.7319,-0.4125 3.2992,-2.1444 5.1139,-1.1548 3.2168,2.0622 7.5884,2.8046 10.8054,0.2474 3.3818,-0.7424 5.114,3.7942 8.9082,1.8972 2.1447,-0.4949 4.3719,-2.1446 6.6815,-0.8248 2.3919,2.2271 5.6089,1.3198 8.3308,0.6599 0.8249,-0.4125 1.7322,-1.3198 2.8046,-0.9074 -3.382,2.3097 -7.5887,3.8769 -11.0529,6.6813 -2.4749,2.1447 -5.9388,3.6292 -7.9188,6.3513 l -0.495,0 c -1.567,1.4848 -3.2167,3.2995 -4.1238,5.0317 -4.9493,4.7841 -7.259,10.9704 -9.6508,16.992 -1.567,-1.7325 -2.2272,-4.2069 -3.5468,-6.1866 -3.7119,-6.0213 -8.166,-12.0427 -13.7752,-16.992 -5.279,-4.9487 -11.7128,-9.4855 -18.394,-12.6201 1.0723,-0.7424 2.7218,-1.237 3.9591,-2.1447 1.8973,0.4125 3.1346,2.1447 5.0315,2.5571 z m -27.7974,18.9718 c -0.3299,0.5771 -0.907,0 -1.0723,-0.33 -0.33,-5.7742 -4.0416,-10.3107 -8.0833,-14.2702 0.4125,-1.9794 1.1546,-3.7116 1.2373,-5.8563 0.5772,-0.2472 0,-0.6599 0.1647,-0.9071 5.2793,5.8563 10.7232,13.4447 7.7536,21.3636 z m 114.7366,-20.869 c 0.4124,2.4747 1.6497,4.8668 1.1548,7.4237 -3.9591,3.217 -7.5061,7.4236 -8.2485,12.3729 l -0.6599,1.1549 c -0.9071,-1.8973 -0.7424,-4.2894 -0.5772,-6.2689 0.9896,-5.6092 3.6292,-10.7231 8.0008,-14.6826 l 0.33,0 z m 23.67321,0.33 0.165,0.4949 -0.165,-0.4949 z m -143.27631,18.6417 c 0.165,1.1549 1.0724,2.8046 1.0724,4.3716 l -0.0825,0.495 c -5.0318,-0.5772 -9.5684,-4.3716 -12.9501,-8.8257 -1.6498,-2.6396 -3.8769,-5.4442 -2.8871,-8.7438 6.5988,1.7326 11.6303,6.6813 14.8473,12.7029 z m 131.2336,-11.878 c 0.495,6.1041 -3.2992,12.043 -8.6609,15.0948 -2.2272,0.8249 -4.5369,2.3921 -6.9288,1.9797 0.8249,-8.0011 7.0112,-14.3524 14.2699,-17.3217 l 1.3198,0.2472 z m -147.9778,10.2283 c 2.1444,5.1967 7.6708,7.6711 12.1252,10.2282 l 0.3299,0.5772 -0.8251,0.5777 c -8.6607,1.402 -14.5174,-5.8564 -20.621,-10.7232 -0.3299,-0.495 0.3297,-0.495 0.6597,-0.8249 2.4746,0.7424 5.5264,0.165 8.3313,0.165 z m 159.11351,1.4023 c -2.7222,3.2995 -6.2692,5.9388 -9.81611,8.331 -2.5569,1.6498 -5.2787,1.7322 -8.3308,2.2269 -0.4949,-0.4947 -1.0723,0 -1.6497,0 -1.0724,-0.1647 -2.2272,-0.0822 -3.2168,-0.4947 l 0,-0.3302 c 5.1965,-2.3919 10.6404,-5.6086 14.2696,-10.5579 2.88741,0.2475 5.85671,0.9074 8.74381,0.8249 z m -42.81001,-0.7424 c -0.4946,2.3918 -1.1548,4.619 -1.5673,6.9287 -6.0213,1.8972 -11.3828,6.0214 -16.0018,10.7229 -0.8249,-0.5771 -1.8973,-1.0721 -1.0724,-2.1444 2.5572,-8.496 11.5478,-12.1252 18.6415,-15.5072 z m -71.9269,5.6092 c 4.4544,3.6292 10.3108,7.3409 8.9085,13.7749 -4.2891,-5.4442 -10.5582,-9.8158 -17.0745,-11.878 -0.9896,-2.3097 -1.732,-4.7018 -2.2269,-7.2587 3.8769,0.7424 6.9287,3.6292 10.3929,5.3618 z m -81.4127,1.402 0.4124,1.8972 c 1.4848,0.2475 2.8046,1.3195 3.7117,2.5572 0.33,0.907 0.8249,2.1444 -0.2471,2.9692 -2.1447,1.8973 -5.9392,2.2272 -8.7435,1.4848 -3.1346,-1.9797 -6.18659,-4.5368 -8.24849,-7.6711 0.9898,-1.0723 1.8147,-3.2995 3.79439,-2.6393 3.3817,0.6596 7.1759,-2.5572 9.3206,1.402 z m -4.7843,1.3198 c 0.2477,0.6599 -0.4947,0.4124 -0.7421,0.5774 -0.8249,-0.0825 -1.8148,-0.165 -2.2272,-0.9074 1.0723,0 2.2272,-0.5774 2.9693,0.33 z m 246.13541,5.4439 c 0.3299,1.8148 -1.8969,1.8148 -2.3094,3.2171 -3.1345,5.4439 -5.7739,11.1353 -9.7333,16.0846 -0.9899,1.237 -3.1343,0.8246 -3.547,2.5569 0.3299,2.0622 0,4.4543 -1.0721,6.1863 -0.9076,-0.1647 0.0825,0.6599 -0.5774,0.8249 -2.8871,3.7944 -6.8462,7.0112 -9.4034,10.9706 -0.1649,2.6394 0.9074,5.279 -0.5774,7.8361 -0.9073,1.6498 -2.3918,3.7117 -4.619,3.547 -0.495,-0.0825 -1.3198,0 -1.6498,-0.7424 -0.3299,-1.5673 1.4023,-1.6498 1.9797,-2.9696 0.165,-2.0622 3.1346,-3.217 1.6498,-5.4442 -1.6498,0.4952 -3.382,2.2272 -5.1965,1.0724 -1.815,-1.4021 -1.3201,-3.7942 -1.5673,-5.9389 1.4845,-2.8871 5.0315,-0.6599 7.2584,-2.3919 3.7945,-3.712 7.1765,-8.0835 10.7232,-12.043 0.0825,-0.4946 -0.165,-0.8246 -0.4949,-1.0723 -1.9797,-0.0825 -3.0518,1.9797 -4.3719,3.1345 -3.2992,2.7219 -5.6086,9.3209 -10.8054,7.4237 -1.9797,-0.9074 -2.8871,-2.8046 -3.7117,-4.5366 -0.9073,-4.2894 2.5569,-7.2587 4.6191,-10.5582 2.4744,-0.0825 1.402,2.8046 2.1444,3.8767 -0.4122,1.9797 -3.0518,3.217 -1.8969,5.5267 2.887,-1.2376 4.5365,-4.2891 6.7637,-6.5988 1.4848,-1.7322 3.0521,-4.4544 5.6914,-3.8769 1.4848,-0.0825 2.6396,1.6497 3.9594,0.9073 2.0622,-2.9695 3.4643,-6.2688 5.1965,-9.4858 -2.7218,0.2474 -5.6089,0.9898 -7.0112,3.7117 -0.2475,0.8248 0.0825,1.8972 -0.7424,2.4749 -2.4744,-0.4124 -1.8147,-2.9696 -2.5571,-4.7843 0,-1.5673 0.2474,-3.0521 1.1548,-4.2066 2.9696,-2.7221 7.0112,-3.2996 10.5582,-4.7844 2.6394,-1.4847 4.4541,-3.8769 7.4237,-4.619 2.3094,0.3297 2.0622,3.0518 2.7218,4.7015 z m -241.84601,-1.6497 c -0.165,0.4952 0.0828,1.1548 -0.4949,1.4848 -1.5673,0.1649 -2.4744,-1.2374 -3.6292,-2.062 0.4124,-0.7424 1.402,-0.5777 2.0619,-0.8248 0.9073,0 1.8972,0.5771 2.0622,1.402 z m 87.0216,10.2282 -0.0825,0.495 c -9.568,1.9797 -18.7239,-1.1549 -24.7453,-8.826 -0.4124,-0.8249 -1.5673,-1.732 -1.1548,-2.5568 6.5987,-1.0724 13.28,0.4949 18.6417,3.6291 3.1346,1.6498 5.3615,4.5366 7.3409,7.2587 z m 76.5462,-10.4754 c -2.3921,4.2891 -6.4341,7.0937 -10.4757,9.898 -3.8767,1.8972 -9.733,1.9797 -13.6925,0.8249 0.0825,-1.4023 2.0622,-2.4744 3.1346,-3.7945 4.7015,-3.7941 10.228,-5.6089 15.9196,-7.0937 1.732,0.0825 3.5467,-0.2471 5.114,0.1653 z m -169.6717,7.6708 c 1.8973,0 3.547,-1.1548 5.3615,-0.4124 0.8252,1.8147 -1.4845,2.6396 -2.2269,3.9594 -0.33,0.8249 -0.8249,1.8148 -0.4949,2.8046 0.3296,0.8249 1.072,1.6495 2.0622,1.732 3.7941,-0.7424 2.8043,3.712 4.619,5.4442 5.6914,7.5884 12.6201,15.1773 21.4461,18.1466 6.5163,2.2271 13.9399,3.7119 21.0336,2.887 0.495,0.2475 0.9899,0.4125 1.2374,0.9071 0.1649,1.3201 -1.3199,1.2374 -2.0622,1.6498 -10.8879,1.7322 -23.7555,2.3097 -32.4993,-5.114 -5.8563,-4.2066 -9.898,-9.7333 -14.517,-15.0123 -2.0622,-1.8147 1.0723,-4.3716 -1.3198,-5.5264 -1.2376,0.33 -2.5572,0.0825 -3.547,-0.6599 -1.2374,-0.9899 -2.0622,-2.3922 -2.0622,-3.9592 0.4949,-1.4847 0.9901,-2.8046 2.0622,-4.0419 -1.1549,-0.9073 -2.3094,0.2475 -3.71169,0.33 -2.0622,0.9073 -3.1346,-1.3198 -4.1244,-2.5569 -0.165,-1.1548 -1.8145,-2.5574 -0.495,-3.4645 2.8046,1.732 5.69169,3.8767 9.23839,2.8868 z m 17.157,3.547 c -0.6599,1.4023 0.4125,3.1343 -0.9898,4.2891 -1.2374,0.0828 -2.4747,0.7424 -3.6295,0.33 -1.4848,-1.1549 -1.6495,-3.2168 -1.3196,-4.8665 1.732,-0.2475 3.4643,-0.495 5.1965,-0.7424 l 0.7424,0.9898 z m 60.2141,3.6295 c 4.4541,1.3195 9.6509,2.2269 14.2699,0.6596 0.2475,0.0828 0.6596,-0.0825 0.8249,0.33 -2.4747,3.052 -6.1863,3.7944 -9.8983,4.5368 -7.2587,1.8148 -13.1151,-2.4746 -19.5491,-4.0419 -0.33,-0.3297 -0.5772,-0.5774 -0.4947,-0.9899 3.382,-1.237 6.7635,-3.0517 10.8057,-2.3918 l 4.0416,1.8972 z m 96.5897,0.9896 c 0.2475,0.5777 -0.4121,0.8249 -0.7421,1.0723 -5.4442,1.9797 -10.5582,5.7742 -16.9095,4.9493 -3.1345,-1.1548 -6.8462,-0.7424 -9.3209,-3.547 -0.0825,-0.5774 -0.9073,-1.4848 -0.2474,-2.2272 0.4946,-0.5774 1.1548,0 1.6494,0.0825 4.9493,0.7424 10.3933,0.0825 14.7651,-2.5568 3.7942,-1.7323 7.5059,0.2472 10.8054,2.2269 z m 35.46881,26.2304 c 1.402,2.1447 3.2168,4.2891 3.1346,6.9287 l 0.1647,0.2475 -0.0825,-0.165 c -0.0822,1.1545 -0.6599,2.3094 -1.6495,2.8871 -1.5673,1.1548 -5.4442,-0.6602 -5.0318,2.4743 -1.6495,2.6397 -4.619,4.1244 -7.4236,5.114 -1.2371,0.8249 -1.4023,2.2272 -2.63971,3.21709 -3.2992,2.1446 -6.8462,4.2893 -10.4754,5.9391 -1.8972,0.9071 -4.4541,2.5569 -6.5163,1.0721 -2.3097,-1.4021 -3.217,-4.2066 -3.547,-6.5163 1.2373,-1.1549 2.5572,0.9074 4.0419,0.9898 5.114,-0.7424 9.2382,-4.20659 13.775,-6.51619 1.8972,-0.9074 1.4848,-3.2171 2.7218,-4.4544 3.29961,1.0723 5.44431,-1.6495 7.34151,-3.7117 0.5771,-2.4746 -1.3201,-5.4439 0.7424,-7.5061 1.3195,-1.9797 4.0416,-1.5673 5.4439,0 z m -18.97171,2.3094 c -0.0825,1.5672 0.3299,3.382 -1.3195,4.2069 -1.1549,0.1649 -2.145,0.6599 -3.1346,1.237 0.165,1.0726 -0.9076,2.145 -1.8972,2.7221 -1.4023,0.4124 -3.2995,0.7424 -4.7016,0.0828 -0.5777,-1.2376 0,-2.9696 0,-4.4544 1.4021,-1.3198 3.8767,-0.3299 5.114,-1.8147 0.0825,-1.402 0.4125,-3.0518 1.8973,-3.547 1.402,0.2477 3.0517,0.2477 4.0416,1.5673 z m 17.89941,2.0624 c 0,0.4947 -0.495,0.7424 -0.9074,0.7424 -0.33,0 -0.5774,0.0822 -0.7424,-0.2477 0,-0.4125 0.5774,-1.3195 1.1548,-0.8249 0.33,-0.165 0.33,0.2475 0.495,0.3302 z m -172.72381,3.1343 c 0.2475,0.9896 -1.0723,1.3198 -1.732,1.8145 -4.2068,0.9076 -7.9188,-1.5673 -11.6305,-2.6394 -0.165,-1.6497 1.9797,-1.8147 3.0521,-2.4746 l 10.3104,3.2995 z m 24.4157,3.547 c 1.7322,0.5771 4.1241,-0.9077 4.949,1.3195 0,1.1549 0.9898,1.8973 0.9898,3.0521 -1.4023,0.7424 -2.7218,2.3919 -4.454,1.5673 -1.3199,-0.9899 -1.3199,-2.9696 -2.9696,-3.4645 l -3.2995,0 c -0.7422,-0.8249 -1.567,-1.8973 -2.3919,-2.5569 -1.0724,-0.9076 0.4124,-1.1548 0.7424,-1.8147 0.9898,-0.495 2.1447,-0.6602 2.9696,-1.8148 1.237,0.9899 2.1444,2.6397 3.4642,3.712 z m -16.3321,-1.8972 c -0.4947,1.1548 0,2.5568 0.4949,3.5467 4.2069,4.1244 8.9084,7.58859 14.0224,10.14569 2.0622,1.1549 4.7841,1.2374 6.929,0.4125 0.9071,0.9898 1.2371,2.8043 2.8044,2.9696 4.0416,-0.7424 7.3411,-3.547 10.8056,-5.6917 1.5673,1.3198 1.402,3.547 2.0619,5.2792 0.2478,1.8145 -1.8972,1.402 -2.8868,1.9797 -4.0419,-2.6396 -8.0835,0.9896 -11.713,2.4744 -0.4949,-0.0825 -0.7421,-0.33 -0.9899,-0.8249 0,-0.9898 -1.237,-1.8972 -2.1444,-2.3097 -3.7119,-0.3299 -7.8363,0.8249 -10.8878,-1.7319 -4.8668,-2.8046 -11.1357,-6.18639 -13.1979,-11.96049 0.8249,-1.8148 2.5569,-3.712 4.3716,-4.7841 l 0.33,0.495 z m 97.3321,5.4439 c -0.5772,1.0724 -0.6597,2.5569 -1.897,3.1346 -1.4848,-0.2478 -3.7119,-0.2478 -5.0315,0.907 0.0825,0.5777 -0.5777,0.9077 -0.9076,1.0724 -0.9896,0.32989 -2.0619,0.2477 -2.9693,-0.0822 -0.7424,-0.7424 -0.9899,-1.7325 -0.8246,-2.6396 0.8246,-0.7424 1.1545,-2.3922 2.3094,-2.3922 1.1548,1.0724 2.5568,0.4949 3.9594,0.4125 l 1.1546,-2.8871 c 1.4847,0.5774 3.7941,0.4949 4.2066,2.4746 z m -25.3228,0.4125 c -3.9591,4.9492 -10.6404,2.7221 -16.2493,3.7944 -2.3919,0.1647 -2.3919,2.80429 -3.712,4.12409 -0.6596,2.8043 -2.5568,5.0315 -2.7221,8.0011 0.4952,0.4124 0.7424,1.2373 1.4026,1.402 2.6396,-0.6596 3.6292,-5.6911 6.9287,-3.1342 l 5.5265,2.8046 0.2471,0.6596 c -2.8868,2.8046 -6.351,5.0318 -9.8155,6.764 -1.8972,0.6596 -3.7942,-0.4124 -5.114,-1.4848 -0.6599,-1.0723 -0.4949,-2.8871 -2.0622,-3.1343 -1.9794,0.6597 -3.8766,1.6495 -6.0216,1.897 -2.0619,2.0622 -3.3815,4.3719 -5.8564,5.9391 -1.9794,-0.4124 -4.7015,-0.7424 -6.7635,-1.8972 l -0.3302,-0.7424 c 3.2995,-0.4949 6.3516,-1.6497 9.4034,-2.7221 1.0723,-2.3097 -3.1346,-2.7221 -2.3097,-5.114 1.4023,-1.6497 2.6396,-4.2894 5.1143,-3.8769 2.0622,1.0723 2.0622,5.4442 5.5267,3.7944 2.8043,-2.0622 2.3919,-5.8563 4.0416,-8.6609 2.2272,-3.62949 4.1244,-8.41349 8.9907,-8.90849 4.3718,-0.165 8.8262,-0.6599 13.2803,-0.165 l 0.4946,0.66 z m 55.8426,6.35129 c 0.3299,2.6396 2.1444,4.784 1.6497,7.6711 -1.3198,1.4023 -3.547,1.6497 -5.3617,1.4848 -0.4949,1.3198 -1.6498,2.1444 -2.8046,2.7221 -1.4023,0.7424 -2.6394,-0.33 -4.0417,-0.1653 -2.6396,1.8148 -5.2789,3.7945 -8.6609,3.2995 -2.9693,2.0622 -6.5988,3.0521 -10.2283,1.8973 -1.6495,2.5568 -3.2992,5.6914 -6.3513,7.0937 -1.7322,0.2474 -2.8043,-1.2374 -4.1244,-2.1447 -1.1546,-1.402 -1.237,-3.2993 -0.8246,-5.1965 1.3198,-0.9899 2.1447,1.4023 3.5467,1.3195 1.7323,0.6602 2.7221,-1.237 3.4645,-2.3094 1.8148,-2.9692 -1.3198,-5.4442 -1.8144,-8.2485 -0.9902,-2.3921 -3.7945,-5.3614 -1.4848,-7.8361 l 0.3299,-0.2474 c 3.1343,3.5469 4.7016,8.001 7.6709,11.6302 2.4749,1.3201 5.3617,-0.1647 7.4236,-1.402 0.4125,-0.7424 0.33,-1.7322 1.0724,-2.3919 1.8972,-0.0827 2.6396,2.9693 4.7018,1.402 1.0723,-0.5774 2.7218,-0.9898 2.8868,-2.4746 0.4124,-0.9899 0.0828,-2.3919 1.1548,-2.9696 1.7323,0.0825 0.9899,2.3097 2.3094,3.0521 0.4124,0.5774 0.9902,0.4124 1.4848,0.165 0.7427,-0.4125 0.1653,-1.3198 0.4949,-1.897 -2.2269,-1.0723 -0.3296,-3.2995 -0.2472,-4.7843 2.4744,0.7424 3.0521,3.9594 5.6914,4.3719 0.4125,-0.33 0.0825,-0.9077 -0.0824,-1.2376 l -2.1447,-1.9795 c 0.1649,-0.9073 0,-2.30959 0.7424,-3.05199 1.4847,-0.165 2.8046,1.07229 3.547,2.22719 z m -22.601,1.4847 c -0.2474,1.2374 -0.1652,3.1343 -1.7325,3.7945 -1.6495,0.33 -3.3814,0.0822 -4.5363,-1.2373 0.1647,-1.5673 0.9071,-2.9696 1.897,-4.1244 1.6497,0.0825 3.547,0.0825 4.3718,1.5672 z m -46.7688,10.6405 c -1.3201,1.0723 -3.052,2.0624 -4.6193,1.2373 -1.6495,-0.495 -0.5774,-1.8145 0,-2.6394 1.4848,-1.2373 3.052,0.165 4.3716,0.7424 l 0.2477,0.6597 z m 71.5142,-0.33 -1.2374,4.3719 -5.1139,4.3718 -1.1549,0.4122 c 0.2478,-1.9794 0,-4.4541 1.8972,-5.6914 l 4.6194,-3.9594 c 0.4124,-0.0822 0.8249,0.0825 0.9896,0.4949 z"
       style="fill:#007d2f;fill-rule:evenodd"
       id="path4"
       inkscape:connector-curvature="0" />
  </g>
</svg>
